<svg xmlns="http://www.w3.org/2000/svg" width="85" height="85" viewBox="0 0 85 85">
    <defs>
        <style>
            .cls-1{fill:none}.cls-2{fill:#fff}
        </style>
    </defs>
    <g id="center-icon-01-ffffff" transform="translate(-220 -1279)">
        <path id="area" d="M0 0H85V85H0z" class="cls-1" transform="translate(220 1279)"/>
        <g id="그룹_218" transform="translate(230 1285)">
            <path id="패스_56310" d="M112.7 621.959a14.176 14.176 0 0 0-4.429-2.941c-2.819-1.254-6.035-2.683-6.035-5.757 0-4.314 3.022-5.851 5.85-5.851a16.055 16.055 0 0 1 3.874.635 14.464 14.464 0 0 0 3.4.579 3.394 3.394 0 0 0 .414.024 3.477 3.477 0 0 0 3.452-3.908 10.4 10.4 0 0 0-1.2-4.436.985.985 0 0 1-.065-.272c-.189-.462-.364-.86-.557-1.288-1.851-4.1-4.649-10.293-4.2-25.038a3.4 3.4 0 0 0-.784-2.024 3.663 3.663 0 0 1-.732-4.263 2.655 2.655 0 0 0 .12-1.089v-.23c0-3.305-3.564-4.03-4.937-4.03-.191-.006-.389-.01-.588-.01a23.834 23.834 0 0 0-6.437 1.148c.071-.173.165-.392.28-.648a1.79 1.79 0 0 0-.146-1.481 29.253 29.253 0 0 1 6.548-1h.34c2.788 0 6.932 1.6 6.932 6.023v.223a4.162 4.162 0 0 1-.336 1.991 1.646 1.646 0 0 0 .315 1.9 5.3 5.3 0 0 1 1.415 3.555c-.437 14.277 2.14 19.983 4.023 24.148.212.472.406.911.593 1.347.89.821 1.733.859 4.048.859 2.818 0 5.85 2.59 5.85 8.276a8.042 8.042 0 0 1-2.34 5.937 7.961 7.961 0 0 1-5.664 2.346h-.266c-5.014 0-8.473-3.21-10.762-5.335-1.4-1.3-2.176-1.948-2.594-1.948a3.278 3.278 0 0 0-.4-.024 3.48 3.48 0 0 0-3.454 3.909c0 1.63 1.926 2.611 4.868 3.918 2.337 1.039 5.128 2.63 5.945 4.754zm.266-11.215c2.277 2.051 4.877 3.948 8.469 3.948.08 0 .169.005.258.005a6.031 6.031 0 0 0 6.027-6.3c0-4.116-1.94-6.275-3.858-6.275-.18.005-.355.008-.529.008a19.825 19.825 0 0 1-2.208-.124l-.316-.035.082.307a9.62 9.62 0 0 1 .327 2.489c0 2.828-1.537 5.849-5.85 5.849a11.36 11.36 0 0 1-2.211-.245l-.791-.168z" class="cls-2" transform="translate(-83.342 -551.589)"/>
            <path id="패스_56311" d="M139.3 623.966a2.179 2.179 0 0 1-2.1-1.554c-.37-1.207-1.091-3.7-1.775-6.815l-.429.034-.3 5.112a3.432 3.432 0 0 1-3.417 3.223H99.451a3.432 3.432 0 0 1-3.417-3.223l-.279-4.733-.428-.035c-.692 3.078-1.417 5.388-1.787 6.492a2.2 2.2 0 0 1-2.088 1.5h-5.9a2.206 2.206 0 0 1-2.117-2.837 15.2 15.2 0 0 0 .6-4.228v-25.484c0-9.475 10.495-13.2 17.44-15.664 2.787-.99 5.118-1.857 5.574-2.5l.043-.061v-.074c-.092-2.305-3.576-2.554-5.069-2.554-.114.01-.21.013-.307.013a3.433 3.433 0 0 1-2.716-1.32 4.081 4.081 0 0 1-.481-3.137l.019-.079-1.047-2.094a1 1 0 0 1 .187-1.15l.51-.509-.511-.51a1 1 0 0 1 0-1.408l.354-.354-1.249-.832a2.21 2.21 0 0 1-.154-3.565l4.107-3.285a3.441 3.441 0 0 1 2.139-.75h23.247a3.443 3.443 0 0 1 2.607 1.193 3.358 3.358 0 0 1 .788 2.686 17.982 17.982 0 0 1-2.66 6.934 10.937 10.937 0 0 0-1.994 5.951 6.294 6.294 0 0 0 4.111 5.887c7.613 2.762 17.732 7.549 17.732 17.178V616.9a15.123 15.123 0 0 0 .6 4.227 2.209 2.209 0 0 1-2.118 2.838zm-4.488-22.621a.99.99 0 0 1 .967 1c0 8 2.548 16.938 3.328 19.488l.047.154 6.317-.009-.081-.278a17.086 17.086 0 0 1-.682-4.794v-25.488c0-8.377-9.371-12.747-16.418-15.305a8.3 8.3 0 0 1-5.425-7.753 12.8 12.8 0 0 1 2.247-6.933 16.137 16.137 0 0 0 2.428-6.246 1.355 1.355 0 0 0-.326-1.1 1.448 1.448 0 0 0-1.1-.5h-23.245a1.43 1.43 0 0 0-.894.314l-4.34 3.47 2.508 1.672a.985.985 0 0 1 .168 1.5l-.122.128.1.146c0 .007.525.939.273 1.5a5.419 5.419 0 0 1-.863 1.279l-.11.112.892 1.784a.992.992 0 0 1 .054.761 2.478 2.478 0 0 0 .061 1.816 1.751 1.751 0 0 0 1.24.524 1.562 1.562 0 0 0 .2-.013c4.4 0 7.039 1.735 7.039 4.639 0 1.952-2.76 2.932-6.939 4.416-6.8 2.414-16.118 5.721-16.118 13.787V616.9a17.163 17.163 0 0 1-.678 4.79l-.081.279H91.6l.049-.15a65.731 65.731 0 0 0 3.3-19.481.992.992 0 0 1 .967-1 1 1 0 0 1 1.023.937l1.079 18.345a1.435 1.435 0 0 0 1.428 1.348h31.834a1.436 1.436 0 0 0 1.429-1.349l1.079-18.344a1 1 0 0 1 .991-.937z" class="cls-2" transform="translate(-83.342 -551.589)"/>
            <path id="패스_56312" d="M112.964 610.744c2.277 2.051 4.877 3.948 8.469 3.948h.258a6.031 6.031 0 0 0 6.027-6.3c0-4.116-1.94-6.275-3.858-6.275-.18.005-.355.008-.529.008a19.825 19.825 0 0 1-2.208-.124l-.316-.035.082.307a9.62 9.62 0 0 1 .327 2.489c0 2.828-1.537 5.849-5.85 5.849a11.36 11.36 0 0 1-2.211-.245l-.791-.168z" class="cls-1" transform="translate(-83.342 -551.589)"/>
        </g>
    </g>
</svg>
