<svg xmlns="http://www.w3.org/2000/svg" width="85" height="85" viewBox="0 0 85 85">
    <defs>
        <style>
            .cls-2{fill:#089892}
        </style>
    </defs>
    <g id="clinic-icon-14" transform="translate(-220 -1279)">
        <path id="area" fill="none" d="M0 0H85V85H0z" transform="translate(220 1279)"/>
        <g id="그룹_213" transform="translate(-419.605 408.566)">
            <path id="패스_56288" d="M689.411 913.469a15.213 15.213 0 0 1-14.225 0 1.816 1.816 0 0 0-2.026.3 1.794 1.794 0 0 0-.439 2c1.187 2.906 3.4 8.312 9.578 8.312s8.392-5.407 9.578-8.312a1.792 1.792 0 0 0-.44-2 1.816 1.816 0 0 0-2.026-.3zm-7.112 8.756c-4.532 0-6.4-3.617-7.8-7.007l-.006-.015.016.007a17.214 17.214 0 0 0 15.572 0l.016-.007-.007.015c-1.39 3.39-3.259 7.007-7.79 7.007z" class="cls-2"/>
            <path id="패스_56289" d="M657.326 887.775h2.631a.93.93 0 1 0 0-1.86h-2.631a.93.93 0 1 0 0 1.86z"/>
            <path id="패스_56290" d="M657.326 891.78h8.12a.93.93 0 1 0 0-1.859h-8.12a.93.93 0 1 0 0 1.859z"/>
            <path id="패스_56291" d="M657.326 895.786h8.12a.93.93 0 1 0 0-1.859h-8.12a.93.93 0 1 0 0 1.859z"/>
            <path id="패스_56292" d="M678.842 904.815h.009a8.816 8.816 0 0 0 6.895 0h.009v5.2l1.861-.52v-26.2h-1.861v2.677a6.708 6.708 0 0 1-6.906 0v-2.677h-1.86v26.2l1.86.518zm0-16.752h.009a8.829 8.829 0 0 0 6.895 0h.009v6.284a6.7 6.7 0 0 1-6.906 0zm0 8.377h.009a8.833 8.833 0 0 0 6.895 0h.009v6.284a6.711 6.711 0 0 1-6.906 0z" class="cls-2"/>
            <path id="패스_56293" d="M711.813 881.434h-59.029a2.181 2.181 0 0 0-2.179 2.178V900.6a.93.93 0 0 0 1.86 0v-16.988a.318.318 0 0 1 .319-.318h59.029a.318.318 0 0 1 .319.318v59.565a.318.318 0 0 1-.319.318h-5.958v-8.268a1.94 1.94 0 0 1 .145-.727l1.379-3.42a5.122 5.122 0 0 0 .074-3.645l-.38-1.06a2.334 2.334 0 0 0-2.2-1.544 2.266 2.266 0 0 0-.749.126l-.516.177a.477.477 0 0 1-.53-.17l-.367-.508a5.2 5.2 0 0 0-.814-5.361l-.006-.008h.01a8.919 8.919 0 0 0-1.05-17.365.93.93 0 0 0-.3 1.835 7.082 7.082 0 0 1 5.906 6.63 7.056 7.056 0 0 1-7.049 7.392 7.455 7.455 0 0 0-6.046 3.037 10.964 10.964 0 0 0-2.078 6.618 4.285 4.285 0 0 1-7.6 2.713 1.794 1.794 0 0 0-2.769 0 4.285 4.285 0 0 1-7.6-2.713 10.964 10.964 0 0 0-2.078-6.618 7.46 7.46 0 0 0-6.047-3.037 7.056 7.056 0 0 1-7.049-7.392 7.057 7.057 0 0 1 13.137-3.233 10.3 10.3 0 0 0 7.1 4.874 22.123 22.123 0 0 0 7.842 0 10.3 10.3 0 0 0 7.1-4.874 7.1 7.1 0 0 1 3.446-2.978.93.93 0 0 0-.349-1.792.912.912 0 0 0-.347.067 8.969 8.969 0 0 0-4.354 3.761 8.35 8.35 0 0 1-4.095 3.487h-.008l-1.861.52h-.005a20.306 20.306 0 0 1-6.9 0h-.005l-1.86-.518h-.009a8.35 8.35 0 0 1-4.094-3.486 8.916 8.916 0 1 0-14.141 10.666 8.906 8.906 0 0 0 3.959 2.408h.011l-.007.008a5.2 5.2 0 0 0-.815 5.361 1.548 1.548 0 0 0-.153.209l-.021.03c-.14.218-.3.464-.56.464a.519.519 0 0 1-.16-.028l-.515-.178a2.331 2.331 0 0 0-2.947 1.418l-.38 1.061a5.122 5.122 0 0 0 .074 3.645l1.38 3.42a1.958 1.958 0 0 1 .14.726v8.268h-5.958a.318.318 0 0 1-.319-.318v-38.2a.93.93 0 0 0-1.86 0v38.2a2.18 2.18 0 0 0 2.179 2.177h59.029a2.18 2.18 0 0 0 2.179-2.177v-59.563a2.181 2.181 0 0 0-2.181-2.178zm-48.08 48.47a1.608 1.608 0 0 0-.3.944v12.647H660.6v-8.268a3.775 3.775 0 0 0-.277-1.422l-1.38-3.42a3.266 3.266 0 0 1-.046-2.322l.38-1.062a.483.483 0 0 1 .591-.285l.515.178a2.365 2.365 0 0 0 .762.128 2.33 2.33 0 0 0 1.881-.968l.672-.93a.933.933 0 0 0 .088-.939 3.808 3.808 0 0 1-.164-3.135 2.908 2.908 0 0 1 1.886-1.607c3.745.193 5.669 3.666 5.914 7.024v.005a3.422 3.422 0 0 1-2.576 1.021 5.084 5.084 0 0 1-1.7-.3 1.618 1.618 0 0 0-.559-.1 1.6 1.6 0 0 0-1.3.668zm35.576 13.591h-34.021v-12.568l1.394-1.927h.005a6.251 6.251 0 0 0 4.926-.34l.008-.005v.01a6.142 6.142 0 0 0 10.669 2.528l.006-.006.006.006a6.144 6.144 0 0 0 10.671-2.528v-.01l.008.005a6.249 6.249 0 0 0 4.928.339l1.393 1.931zm4.963-9.689a3.766 3.766 0 0 0-.276 1.422v8.267h-2.827v-12.647a1.616 1.616 0 0 0-.3-.944l-1.55-2.147a1.6 1.6 0 0 0-1.3-.666 1.637 1.637 0 0 0-.559.1 5.061 5.061 0 0 1-1.7.3 3.422 3.422 0 0 1-2.578-1.024v-.005c.3-4.6 3.276-6.863 5.92-7.021a2.907 2.907 0 0 1 1.881 1.6 3.808 3.808 0 0 1-.163 3.139.932.932 0 0 0 .089.939l.671.93a2.333 2.333 0 0 0 1.881.968 2.377 2.377 0 0 0 .764-.128l.514-.178a.48.48 0 0 1 .591.285l.379 1.062a3.266 3.266 0 0 1-.046 2.322z"/>
        </g>
    </g>
</svg>
