<svg xmlns="http://www.w3.org/2000/svg" width="85" height="85" viewBox="0 0 85 85">
    <defs>
        <style>
            .cls-1{fill:none}.cls-2{fill:#fff}
        </style>
    </defs>
    <g id="center-icon-06-ffffff" transform="translate(-220 -1279)">
        <path id="area" d="M0 0H85V85H0z" class="cls-1" transform="translate(220 1279)"/>
        <g id="그룹_222" transform="translate(234 1286)">
            <path id="사각형_111" d="M0 0H25.901V13.943H0z" class="cls-1" transform="translate(2.137 31.428)"/>
            <path id="패스_56328" d="M565.687 621.245a12.1 12.1 0 0 1-12.077-12.076v-3.343h-3.533a3.853 3.853 0 0 1-3.845-3.847v-4.039h-1.2a5.14 5.14 0 0 1-5.127-5.127v-32.776a5.142 5.142 0 0 1 5.127-5.128h19.285a5.147 5.147 0 0 1 5.132 5.128v32.776a5.14 5.14 0 0 1-5.132 5.127h-1.194v4.039a3.853 3.853 0 0 1-3.845 3.847h-3.533v3.343a9.94 9.94 0 0 0 19.879 0v-49.118a8.989 8.989 0 0 1 17.977 0v21.359a1.069 1.069 0 0 1-2.139 0v-21.359a6.85 6.85 0 0 0-13.7 0v49.118a12.109 12.109 0 0 1-12.077 12.076zm-17.318-19.266a1.716 1.716 0 0 0 1.708 1.71h9.2a1.716 1.716 0 0 0 1.708-1.71v-4.039h-12.616zm18.943-41.942a3 3 0 0 0-2.994-2.988h-19.285a3 3 0 0 0-2.99 2.988v32.776a3 3 0 0 0 2.99 2.988h19.285a3 3 0 0 0 2.994-2.988zm25.222 40.563a5.075 5.075 0 0 1-5.076-5.076 8.035 8.035 0 0 1 1.431-4.183 34.939 34.939 0 0 1 3.347-4.3.4.4 0 0 1 .3-.135.392.392 0 0 1 .3.137 34.978 34.978 0 0 1 3.346 4.3 8.033 8.033 0 0 1 1.43 4.183 5.075 5.075 0 0 1-5.077 5.076zm-.245-11.334a23.707 23.707 0 0 0-2.2 2.885 5.938 5.938 0 0 0-1.064 3.064 3.51 3.51 0 1 0 7.019 0 5.929 5.929 0 0 0-1.063-3.064 23.989 23.989 0 0 0-2.2-2.885l-.245-.283z" class="cls-2" transform="translate(-539.906 -551.064)"/>
            <path id="패스_56329" d="M542.043 563.424h7.083a1.068 1.068 0 0 1 0 2.136h-7.083" class="cls-2" transform="translate(-539.906 -551.064)"/>
            <path id="패스_56330" d="M542.043 569.424h7.083a1.068 1.068 0 0 1 0 2.136h-7.083" class="cls-2" transform="translate(-539.906 -551.064)"/>
            <path id="패스_56331" d="M542.043 575.424h7.083a1.068 1.068 0 0 1 0 2.136h-7.083" class="cls-2" transform="translate(-539.906 -551.064)"/>
            <path id="패스_56332" d="M542.043 581.424h7.083a1.068 1.068 0 0 1 0 2.136h-7.083" class="cls-2" transform="translate(-539.906 -551.064)"/>
            <path id="패스_56333" d="M542.043 587.424h7.083a1.068 1.068 0 0 1 0 2.136h-7.083" class="cls-2" transform="translate(-539.906 -551.064)"/>
            <path id="패스_56334" d="M567.312 565.56h-7.084a1.068 1.068 0 0 1 0-2.136h7.084" class="cls-2" transform="translate(-539.906 -551.064)"/>
        </g>
    </g>
</svg>
