<svg xmlns="http://www.w3.org/2000/svg" width="85" height="85" viewBox="0 0 85 85">
    <defs>
        <style>
            .cls-2{fill:#089892}
        </style>
    </defs>
    <g id="clinic-icon-07" transform="translate(-220 -1279)">
        <path id="area" fill="none" d="M0 0H85V85H0z" transform="translate(220 1279)"/>
        <g id="그룹_207" transform="translate(-533.697 531.351)">
            <path id="패스_56260" d="M796.479 751.649a23.81 23.81 0 0 0-23.779 23.783v30.112a23.79 23.79 0 0 0 35.016 20.966 1.045 1.045 0 0 0-.988-1.841 21.717 21.717 0 0 1-10.246 2.568 21.947 21.947 0 0 1-2.24-.115l-.448-.046.008-.452a37.272 37.272 0 0 1 10.968-25.847l13.4-13.4v18.172a21.47 21.47 0 0 1-2.332 9.8 1.045 1.045 0 1 0 1.863.947 23.55 23.55 0 0 0 2.56-10.743v-30.121a23.81 23.81 0 0 0-23.782-23.783zm-4.06 68.111a39.668 39.668 0 0 0-.7 6.34l-.018.614-.6-.152a21.684 21.684 0 0 1-16.319-21.018v-2.073l.937-.208a32.422 32.422 0 0 0 16.408 15.952l.363.157zm4.378-11.912a39.956 39.956 0 0 0-3.673 8.9l-.154.556-.525-.241a30.3 30.3 0 0 1-17.658-27.463v-.162l.939-.2a32.813 32.813 0 0 0 4.2 6.814 33.33 33.33 0 0 0 16.583 11.093l.6.173zm21.374-23.394l-.251.214-5.122 5.123-1.481 1.481-8.027 8.028a39.636 39.636 0 0 0-4.833 5.861l-.2.287-.335-.088a30.883 30.883 0 0 1-17.492-12.053l-.194-.309-.013.016-1.168-1.895-.387-.615a31.1 31.1 0 0 1-3.886-15.073 21.692 21.692 0 1 1 43.385 0z"/>
            <path id="패스_56261" d="M808.407 785.719l-.437-.308.341-.409a16.407 16.407 0 1 0-25.23 0l.341.408-.436.308a27.794 27.794 0 0 0-4.72 4.473l.01.018 1.181 1.879.2-.27a20.172 20.172 0 0 1 4.983-4.7l.3-.2.282.234a16.373 16.373 0 0 0 20.931 0l.282-.234.3.2a20.119 20.119 0 0 1 3.458 2.9l.331.348 1.481-1.481-.348-.363a21.968 21.968 0 0 0-3.25-2.803zm-12.707 3.122a14.319 14.319 0 0 1 0-28.637 2.361 2.361 0 1 1 0 4.722 1.045 1.045 0 1 0 0 2.09 4.45 4.45 0 0 0 4.36-5.347l-.178-.87.833.311a14.319 14.319 0 0 1-5.015 27.731z" class="cls-2" transform="translate(0.784 0.91)"/>
            <path id="패스_56263" d="M793.906 779.968a3.68 3.68 0 0 1-2.619-1.083 1.044 1.044 0 0 1 .739-1.783 1.033 1.033 0 0 1 .738.306 1.617 1.617 0 0 0 2.284 0 1.045 1.045 0 0 1 1.478 1.477 3.682 3.682 0 0 1-2.62 1.083z" class="cls-2" transform="translate(2.573 3.582)"/>
            <path id="패스_56264" d="M788.824 772.68a1.536 1.536 0 1 0-1.086-.451 1.54 1.54 0 0 0 1.086.451z" class="cls-2" transform="translate(2.054 2.527)"/>
            <path id="패스_56265" d="M798.646 772.68a1.536 1.536 0 1 0-1.087-.451 1.547 1.547 0 0 0 1.087.451z" class="cls-2" transform="translate(3.436 2.527)"/>
            <path id="패스_56266" d="M807.991 811.476a1.538 1.538 0 1 0 1.086.451 1.547 1.547 0 0 0-1.086-.451z" transform="translate(4.751 8.42)"/>
        </g>
    </g>
</svg>
