<svg xmlns="http://www.w3.org/2000/svg" width="85" height="85" viewBox="0 0 85 85">
    <defs>
        <style>
            .cls-2{fill:#fff}
        </style>
    </defs>
    <g id="clinic-icon-12-ffffff" transform="translate(-220 -1279)">
        <path id="area" fill="none" d="M0 0H85V85H0z" transform="translate(220 1279)"/>
        <g id="그룹_211" transform="translate(-192.628 411.888)">
            <path id="패스_56284" d="M479.193 879.4a17.307 17.307 0 0 0-11.752-4.287 18.851 18.851 0 0 0-11.351 3.653l-.337.256-.338-.256a18.852 18.852 0 0 0-11.352-3.653 17.308 17.308 0 0 0-11.753 4.287c-6.13 5.708-5.378 15.027-2.631 21.839a35.938 35.938 0 0 0 2.959 5.442c.568.908 1.155 1.845 1.693 2.83a24.019 24.019 0 0 1 3.055 8.861 64.6 64.6 0 0 0 1.823 10.439c.519 1.879 1.487 5.374 3.978 6.6l.29.144v-2.22l-1.134-1.425-.127-.276a19.579 19.579 0 0 1-1.189-3.357 63.287 63.287 0 0 1-1.761-10.134 25.831 25.831 0 0 0-3.266-9.537c-.448-.815-.938-1.614-1.414-2.388l-.263-.461c-.662-2.667-1.717-9.323 2.78-13.514a12.911 12.911 0 0 1 8.768-3.152 13.968 13.968 0 0 1 9.2 3.25c.04.026.084.052.2.115a.966.966 0 0 0 .12.077 1.251 1.251 0 0 0 .225.057.554.554 0 0 0 .142.017.689.689 0 0 0 .178-.025l.1-.012.349-.185a14.067 14.067 0 0 1 9.253-3.294 12.883 12.883 0 0 1 8.758 3.152c4.523 4.2 3.419 10.932 2.711 13.684-.508.813-1.084 1.736-1.606 2.691a30.006 30.006 0 0 0-2.479 5.842 1.33 1.33 0 0 0-.075.277 21.893 21.893 0 0 0-.717 3.389 64.342 64.342 0 0 1-1.76 10.165 19.629 19.629 0 0 1-1.175 3.328l-.127.278-1.068 1.34-.069 2.317.289-.144c2.478-1.232 3.446-4.713 3.965-6.581a65.944 65.944 0 0 0 1.832-10.486 23.974 23.974 0 0 1 3.043-8.823c.554-1.009 1.17-2 1.723-2.882a35.259 35.259 0 0 0 2.938-5.386c2.751-6.822 3.508-16.145-2.628-21.852zm1.438 19.592l-.1.286-.963-.112-.028-.3a12.782 12.782 0 0 0-3.851-8.008 14.77 14.77 0 0 0-10.048-3.667 16.2 16.2 0 0 0-9.554 3.007l-.331.244-.332-.244a16.2 16.2 0 0 0-9.554-3.005 14.806 14.806 0 0 0-10.054 3.658 12.827 12.827 0 0 0-3.855 8.008l-.029.3-.962.112-.1-.287c-2.516-7.464-1.5-14.267 2.724-18.2a15.413 15.413 0 0 1 10.47-3.765 16.661 16.661 0 0 1 10.983 3.885c.044.029.089.054.178.1a1.087 1.087 0 0 0 .506.173 1.135 1.135 0 0 0 .218-.033c.058-.009.116-.023.129-.026a1.575 1.575 0 0 0 .229-.134l.092-.046a16.8 16.8 0 0 1 11.031-3.915 15.4 15.4 0 0 1 10.469 3.765c4.225 3.929 5.244 10.733 2.732 18.203z" class="cls-2"/>
            <path id="패스_56285" d="M468.225 931.369c.263-9.2-.656-15.477-2.659-18.149-2.349-3.141-.564-6 2.216-9.7 1.342-1.783 2.5-3.322 2.5-4.856a2.765 2.765 0 0 0-.991-2.313 3.361 3.361 0 0 0-2.133-.615 21.852 21.852 0 0 0-4.811.88 19.733 19.733 0 0 1-13.186 0 21.867 21.867 0 0 0-4.822-.883 3.327 3.327 0 0 0-2.116.606 2.816 2.816 0 0 0-1 2.36c0 1.5 1.16 3.036 2.5 4.819 2.778 3.7 4.562 6.561 2.213 9.7-2 2.672-2.922 8.953-2.656 18.165l.009.3.185 3.868.02.323c.235 3.683.571 6.724.75 8.208a.958.958 0 0 0 .952.831.833.833 0 0 0 .11-.007.952.952 0 0 0 .825-1.06c-.261-2.085-.512-4.809-.688-7.47l-.032-.475.463-.108c1.915-.447 4.612-3.858 6.582-17.57.536-3.693 2.15-4.3 3.361-4.428 1.127.139 2.687.751 3.222 4.427 1.969 13.722 4.669 17.131 6.588 17.574l.464.106-.031.476c-.187 2.808-.437 5.531-.688 7.467a.954.954 0 0 0 .831 1.061c.033.005.11.007.11.007a.95.95 0 0 0 .941-.831c.078-.63.485-3.986.75-8.213l.021-.323.187-3.88zm-1.977 1.595l-.063 1.484-.931-1.156c-1.256-1.558-3.054-6.4-4.334-15.334-.54-3.7-2.229-5.739-5.019-6.06l-.224.01-.042-.014c-2.814.3-4.515 2.346-5.057 6.064-1.279 8.916-3.074 13.762-4.327 15.323l-.934 1.165-.061-1.491c-.282-6.771-.128-15.493 2.2-18.6 3.386-4.514.032-8.99-2.179-11.94a10.212 10.212 0 0 1-2.157-3.714 2.342 2.342 0 0 1 .1-.67l.076-.114.08-.071.03-.021a1.522 1.522 0 0 1 .89-.207 22.421 22.421 0 0 1 4.44.846 29.739 29.739 0 0 0 6.993 1.182 30.2 30.2 0 0 0 7.118-1.2 24.013 24.013 0 0 1 4.39-.839 1.438 1.438 0 0 1 .929.268l.069.087.048.1a1.572 1.572 0 0 1 .07.826 10.39 10.39 0 0 1-2.092 3.492c-2.229 2.97-5.6 7.461-2.211 11.977 2.334 3.118 2.484 11.843 2.198 18.607z" class="cls-2"/>
        </g>
    </g>
</svg>
