<svg xmlns="http://www.w3.org/2000/svg" width="85" height="85" viewBox="0 0 85 85">
    <g>
        <path fill="none" d="M0 0H85V85H0z" transform="translate(-220 -1279) translate(220 1279)"/>
        <g>
            <g>
                <path d="M671.294 802.475a6.724 6.724 0 0 1-1.784-6.339l3.958-20.409a4.4 4.4 0 0 0-4.315-5.232h-5.707l.052-.893c.01-.2.018-.388.018-.582a10.193 10.193 0 0 0-.179-1.9l-.01-.5.243-.245a7.127 7.127 0 0 0 1.949-5.029c0-3.614-2.45-6.556-5.461-6.556H658.6a10.678 10.678 0 0 0-8.362 4.3 16.832 16.832 0 0 0 0 20.149 10.678 10.678 0 0 0 8.362 4.3.885.885 0 0 0 .117-.007c.286-.029.811-.072 1.026-.072 3.184 0 5.774-3.117 5.774-6.948a8.2 8.2 0 0 0-.446-2.692l-.387-1.123h4.467a2.19 2.19 0 0 1 2.15 2.608l-3.958 20.4c-1.051 4.314 1.7 8.915 6.063 10.808l-.357-2.573zm-10.368-35.886a7.718 7.718 0 0 1 .385 2.431 7.81 7.81 0 0 1-.293 2.131 1.434 1.434 0 0 0-.041.447 1.1 1.1 0 0 0 .7 1.025l.2.1.1.106a5.4 5.4 0 0 1 1.338 3.687c0 2.615-1.6 4.742-3.569 4.742-.321 0-.784.04-1.115.068l-.134.011c-5.183-.072-9.4-5.532-9.4-12.171 0-6.712 4.264-12.173 9.506-12.173h1.456c1.8 0 3.256 1.951 3.256 4.351a4.64 4.64 0 0 1-1.917 3.96 1.1 1.1 0 0 0-.472 1.285z" transform="translate(-220 -1279) translate(-416.892 534.213)"/>
                <path d="M708.389 759.09a10.68 10.68 0 0 0-8.363-4.3h-1.456c-3.011 0-5.461 2.942-5.461 6.556a7.139 7.139 0 0 0 1.955 5.036l.29.41-.064.339a10.093 10.093 0 0 0-.177 1.892c0 .194.008.387.017.58l.052.9H688.7a4.4 4.4 0 0 0-4.282 5.389l4.713 20.308a7.32 7.32 0 0 1-1.889 6.6l-1.679 1.239-.336 2.408c4.286-1.936 7.1-6.5 6.044-10.78l-4.7-20.277a2.176 2.176 0 0 1 .419-1.855 2.149 2.149 0 0 1 1.715-.829h5.243l-.388 1.124a8.185 8.185 0 0 0-.446 2.691c0 3.831 2.59 6.948 5.773 6.948.217 0 .741.043 1.021.072a1 1 0 0 0 .122.007 10.682 10.682 0 0 0 8.363-4.3 16.833 16.833 0 0 0 0-20.15zm-8.354 22.242c-.173-.018-.765-.075-1.152-.075-1.968 0-3.57-2.127-3.57-4.742a5.411 5.411 0 0 1 1.343-3.692l.165-.148.135-.054a1.093 1.093 0 0 0 .7-1v-.122a1.066 1.066 0 0 0-.04-.351 7.81 7.81 0 0 1-.293-2.131 7.719 7.719 0 0 1 .386-2.431 1.1 1.1 0 0 0-.471-1.286 4.641 4.641 0 0 1-1.918-3.96c0-2.4 1.461-4.351 3.257-4.351h1.455c5.242 0 9.507 5.461 9.507 12.173-.006 6.644-4.262 12.103-9.504 12.17z" transform="translate(-220 -1279) translate(-416.892 534.213)"/>
                <path fill="#089892" d="M683.431 797.574H675.2a2.665 2.665 0 0 0-2.662 2.662l.516 3.7.357 2.573.43 3.087a2.656 2.656 0 0 0 2.658 2.537h1.716v6.392a1.1 1.1 0 1 0 2.2 0v-6.392h1.716a2.672 2.672 0 0 0 2.667-2.618l.429-3.079.336-2.408.529-3.8a2.665 2.665 0 0 0-2.661-2.654zm-.275 7.688a1.369 1.369 0 0 0-.054.486l-.588 4.185h-6.4l-.589-4.278a1.326 1.326 0 0 0-.081-.483l-.758-5.393h9.255z" transform="translate(-220 -1279) translate(-416.892 534.213)"/>
            </g>
            <path fill="none" d="M698.571 756.992c-1.8 0-3.257 1.951-3.257 4.351a4.641 4.641 0 0 0 1.918 3.96 1.1 1.1 0 0 1 .471 1.286 7.719 7.719 0 0 0-.386 2.431 7.81 7.81 0 0 0 .293 2.131 1.066 1.066 0 0 1 .04.351v.122a1.093 1.093 0 0 1-.7 1l-.135.054-.165.148a5.411 5.411 0 0 0-1.343 3.692c0 2.615 1.6 4.742 3.57 4.742.387 0 .979.057 1.152.075 5.242-.067 9.5-5.526 9.5-12.167 0-6.712-4.265-12.173-9.507-12.173z" opacity="0.4" transform="translate(-220 -1279) translate(-416.892 534.213)"/>
        </g>
    </g>
</svg>
