<svg xmlns="http://www.w3.org/2000/svg" width="85" height="85" viewBox="0 0 85 85">
    <g>
        <path fill="none" d="M0 0H85V85H0z" transform="translate(-220 -1279) translate(220 1279)"/>
        <g>
            <path fill="none" d="M583.2 815.745a1.882 1.882 0 0 1-1.889-1.889v-32.763h.315l2.969-.011h.5v32.742a1.9 1.9 0 0 1-1.895 1.921z" opacity="0.4" transform="translate(-220 -1279) translate(-299.535 536.819)"/>
            <g>
                <g>
                    <g>
                        <path d="M575.063 809.144a6.34 6.34 0 0 0-10.295-4.943v-15.175a21.371 21.371 0 0 0-6.622-15.479 19.038 19.038 0 0 1 2.539-1.532 1.192 1.192 0 0 0 .662-1.06v-16.12a1.186 1.186 0 1 0-2.372 0v15.406a22.611 22.611 0 0 0-2.677 1.732 22.3 22.3 0 0 0-2.675-1.732v-15.406a1.186 1.186 0 1 0-2.372 0v16.12a1.184 1.184 0 0 0 .661 1.06 18.987 18.987 0 0 1 2.54 1.532 21.375 21.375 0 0 0-6.632 15.469v15.175a6.336 6.336 0 1 0 2.277 6.139h2.266a1.186 1.186 0 1 0 0-2.372l-2.151-.01v-18.932a18.758 18.758 0 0 1 6.077-13.947 18.966 18.966 0 0 1 6.107 13.957v18.932h-2.162a1.186 1.186 0 0 0 0 2.372h2.266a6.337 6.337 0 0 0 12.562-1.186zm-28.419 2.792a3.948 3.948 0 1 1 0-5.583 3.945 3.945 0 0 1 0 5.583zm22.08 1.175a3.957 3.957 0 1 1 3.957-3.956 3.96 3.96 0 0 1-3.957 3.956z" transform="translate(-220 -1279) translate(-299.535 536.819)"/>
                    </g>
                </g>
                <g>
                    <g>
                        <path fill="#089892" d="M587.467 813.846l.011-33.929a1.192 1.192 0 0 0-1.186-1.186h-.5v-25.354a1.177 1.177 0 0 0-.357-.84 1.2 1.2 0 0 0-.84-.356 9.212 9.212 0 0 0-9.214 9.213v9.886a1.188 1.188 0 0 0 .872 1.144 5.418 5.418 0 0 1 3.9 4.7l.146 1.6h-.188a1.177 1.177 0 0 0-1.186 1.186v33.939a4.264 4.264 0 0 0 4.25 4.271h.021a4.282 4.282 0 0 0 4.271-4.274zm-4.767-35.115l-.167-1.826a7.856 7.856 0 0 0-4.765-6.464v-9.047a6.842 6.842 0 0 1 5.645-6.737v24.074zm.494 37.014a1.882 1.882 0 0 1-1.889-1.889v-32.763h.315l2.969-.011h.5v32.742a1.9 1.9 0 0 1-1.889 1.921z" transform="translate(-220 -1279) translate(-299.535 536.819)"/>
                    </g>
                </g>
            </g>
        </g>
    </g>
</svg>
