<?xml version="1.0" encoding="utf-8"?>
<!-- Generator: Adobe Illustrator 27.0.1, SVG Export Plug-In . SVG Version: 6.00 Build 0)  -->
<svg version="1.1" id="레이어_1" xmlns="http://www.w3.org/2000/svg" xmlns:xlink="http://www.w3.org/1999/xlink" x="0px"
	 y="0px" viewBox="0 0 85 85" style="enable-background:new 0 0 85 85;" xml:space="preserve">
<style type="text/css">
	.st0{fill:#FFFFFF;}
</style>
<g id="center-icon-04" transform="translate(-220 -1279)">
	<path id="area" class="st0" d="M220,1279h85v85h-85V1279z"/>
	<g id="그룹_220" transform="translate(229.219 1289.17)">
		<g id="그룹_219" transform="translate(0 0)">
			<path id="패스_56313" class="st0" d="M49.2,27.9c0.1,0.4,0.5,0.8,1,0.8c0.1,0,0.2,0,0.3,0c0.5-0.1,0.9-0.7,0.7-1.2
				c-0.8-3.2-2.1-6.3-3.7-9.1c-0.2-0.3-0.5-0.5-0.9-0.5c-0.6,0-1,0.5-1,1c0,0.2,0,0.3,0.1,0.5C47.2,22,48.4,24.9,49.2,27.9z"/>
			<path id="패스_56314" class="st0" d="M18.8,41.1c0.1,0,0.1-0.1,0.2-0.1L18.8,41.1z"/>
			<path id="패스_56315" class="st0" d="M34.2,48l0.1,0.4l-0.1,0.4c-1.1,3.1-1.7,6.5-1.6,9.8c0,1.7-1.1,3.2-2.7,3.5
				c-0.2,0-0.5,0.1-0.7,0.1h4.5l0.6-1.6c0.2-0.6,0.3-1.3,0.3-2v-0.2c0-1.1,0-2.2,0.2-3.3l0.4-3.8l1.8,3.3c1.1,2,2.4,3.8,3.8,5.6
				l1.7,2h4.4c-0.9,0-1.8-0.4-2.4-1c-6-6-9.5-13.9-9.9-22.4l-0.1-1.3h0.1l-2.2-0.1l0.4,3.6C33,43.4,33.5,45.8,34.2,48L34.2,48z"/>
			<path id="패스_56316" class="st0" d="M10.5,37.6l0.2,0.7c0.2,0.6,0.5,1.2,1,1.7c1,1.2,2.5,1.9,4.1,1.9c1.1,0,2.1-0.3,3-0.9
				L19,41c0.2-0.2,0.5-0.4,0.7-0.6l2.9-2.9l2-2l4-4c0.3-0.3,0.6-0.6,0.8-1l1.3-2.1l0.9,2.3c0.4,1.1,0.7,2.1,0.9,3.3l0.1,0.6L32,35.1
				l-0.4,0.5h3l-0.1-1.1c-0.4-3.1-1.5-6.1-3.3-8.7c-0.3-0.5-0.9-0.6-1.4-0.2c-0.1,0.1-0.2,0.2-0.3,0.4l-1.7,3.3
				c-0.2,0.3-0.4,0.6-0.6,0.9L18.2,39c-1.3,1.3-3.5,1.3-4.9,0c-0.1-0.1-0.1-0.1-0.2-0.2c-1.1-1.5-1-3.5,0.3-4.8l8.2-8.2
				c0.1-0.1,0.1-0.2,0.2-0.3l4.2-8.3c0.6-1.1,1.7-1.8,3-1.8c0.8,0,1.6,0.3,2.3,0.8c5.7,4.4,9.3,10.9,10,18.1l0.1,1.3h2l-0.1-1.1
				c-0.6-7.9-4.5-15.1-10.8-19.9c-1-0.8-2.2-1.2-3.5-1.2c-1.3,0-2.6,0.5-3.6,1.3l-0.2,0.1l-0.1,0.1c-0.2,0.1-0.4,0.3-0.5,0.5
				l-4.6,9.1l-8.1,8.1c-0.6,0.6-1.1,1.4-1.4,2.2l-0.3,0.8C10.4,36.2,10.3,36.9,10.5,37.6L10.5,37.6z"/>
			<path id="패스_56317" class="st0" d="M64.7,62.2h-3.4V41c0-3-2.4-5.4-5.4-5.4H24.5l-2,2H30l2.4-0.1l2.2,0.1h21.1
				c1.9,0,3.4,1.5,3.4,3.4v21.2H5.4c-1.6,0-3-1.3-3-3c0-0.1,0-0.2,0-0.3l2.4-21.3h5.6l0,0.1c-0.1-0.7-0.1-1.4,0-2.1H5.1l1.4-12.9
				l2.9,1.5c0.1,0.1,0.3,0.1,0.4,0.1c0.6,0,1-0.4,1-1c0-0.4-0.2-0.7-0.6-0.9l-8.9-4.4c-0.5-0.2-1.1,0-1.4,0.5
				c-0.2,0.5,0,1.1,0.5,1.3l0,0l4.3,2.2l-0.4,1c0,0.1,0,0.2-0.1,0.2l-4,35.6c-0.3,2.7,1.7,5.2,4.4,5.5c0.2,0,0.4,0,0.5,0h59.2
				c0.6,0,1-0.5,1-1S65.2,62.2,64.7,62.2L64.7,62.2z"/>
			<path id="패스_56318" class="st0" d="M49.4,56.4c1.3,1.4,1.2,3.6-0.2,4.9c-0.6,0.6-1.5,0.9-2.3,0.9h4.6l0.6-1.6
				c0.7-1.9,0.2-4-1.2-5.5c-3.2-3.4-7.1-9-7.4-16.2l-0.1-1.3h-2l0,1.2C41.7,45,44.5,51.1,49.4,56.4z"/>
			<path id="패스_56319" class="st0" d="M23.7,58.7c0,0.6,0.1,1.2,0.3,1.8l0.6,1.6h4.6c-1.9,0-3.4-1.5-3.4-3.4c0,0,0,0,0,0
				c-0.1-6.4,1.5-12.7,4.8-18.2l1.9-3.1L30,37.5l-1.1,1.8C25.3,45.2,23.5,51.9,23.7,58.7L23.7,58.7z"/>
			<path id="패스_56320" class="st0" d="M18,15.3c0.3,0,0.5,0,0.8,0c4.2-0.4,7.3-4.2,6.9-8.4c-0.4-4.2-4.2-7.3-8.4-6.9
				S10,4.2,10.4,8.4C10.8,12.3,14.1,15.3,18,15.3z M12.4,6.9c0.4-3.1,3.3-5.3,6.4-4.8c3.1,0.4,5.3,3.3,4.8,6.4
				c-0.3,2.5-2.2,4.4-4.7,4.8c-0.3,0-0.6,0.1-0.9,0.1c-3.1,0-5.7-2.5-5.7-5.6C12.4,7.4,12.4,7.2,12.4,6.9L12.4,6.9z"/>
		</g>
		<path id="패스_56321" class="st0" d="M12.4,6.9c0.4-3.1,3.3-5.3,6.4-4.8c3.1,0.4,5.3,3.3,4.8,6.4c-0.3,2.5-2.2,4.4-4.7,4.8
			c-0.3,0-0.6,0.1-0.9,0.1c-3.1,0-5.7-2.5-5.7-5.6C12.4,7.4,12.4,7.2,12.4,6.9L12.4,6.9z"/>
	</g>
</g>
</svg>
