<svg xmlns="http://www.w3.org/2000/svg" width="85" height="85" viewBox="0 0 85 85">
    <defs>
        <style>
            .cls-2{fill:#fff}
        </style>
    </defs>
    <g id="clinic-icon-16-ffffff" transform="translate(-220 -1279)">
        <path id="area" fill="none" d="M0 0H85V85H0z" transform="translate(220 1279)"/>
        <g id="그룹_215" transform="translate(-641.934 413.005)">
            <path id="패스_56297" d="M926.676 908.323a4.239 4.239 0 0 1-4.211 3.911 6.477 6.477 0 0 0-6.28 5.038l-.088.293h-.3c-.076 0-.152 0-.228.008a4.326 4.326 0 0 0-3.119 2.05 1.645 1.645 0 0 1-1.3.57l-.911.057.609-.681a6.458 6.458 0 1 0-10.456-1.162l.079.141-.048.154a.889.889 0 0 0-.033.126 12.949 12.949 0 0 0 .121 4.559 9.762 9.762 0 0 0 5.637 7.165 13.986 13.986 0 0 0 5.774 1.43 7.026 7.026 0 0 0 6.46-3.548l.276-.5.35.456a2 2 0 0 1 .283.492 1.763 1.763 0 0 0 1.837 1.182 3.089 3.089 0 0 0 .355-.021 3.529 3.529 0 0 0 3.1-3.527 6.567 6.567 0 0 0-2.831-5.167 5.106 5.106 0 0 0-2.561-1l-.28-.023-.057-.274a3.254 3.254 0 0 0-.531-1.248l-.074-.1v-.127a4.248 4.248 0 0 1 4.221-4.124 6.428 6.428 0 0 0 4.88-2.248l.489-.569-1.151-3.4zm-20.647 2.7a4.247 4.247 0 1 1-4.246 4.247 4.251 4.251 0 0 1 4.246-4.247zm12.432 11.734l.141-.21h.233a2.887 2.887 0 0 1 1.621.6 4.475 4.475 0 0 1 1.909 3.3 1.425 1.425 0 0 1-.445 1.073 1.381 1.381 0 0 1-.327.212l-.315.145-.169-.3a3.333 3.333 0 0 0-2.311-1.792 1.606 1.606 0 0 0-.2-.011 2.352 2.352 0 0 0-2.111 1.5 4.906 4.906 0 0 1-4.583 2.5 11.807 11.807 0 0 1-4.839-1.231 8.03 8.03 0 0 1-4.609-7.216l-.033-.659.583.311a6.434 6.434 0 0 0 4.1.66l.106-.018.1.041a10.14 10.14 0 0 0 3.582.755 3.88 3.88 0 0 0 3.352-1.494 2.513 2.513 0 0 1 1.569-1.146 1.009 1.009 0 0 1 .689.3l.04.037.027.047a1.7 1.7 0 0 1 .021 1.363c-.507 1.4-2.373 2.6-5.253 3.388a1.106 1.106 0 0 0 .291 2.173 1.132 1.132 0 0 0 .294-.04c3.348-.922 5.61-2.403 6.537-4.288z" class="cls-2"/>
            <path id="패스_56298" d="M928.869 907.754a1.313 1.313 0 0 0-.15-.356 25.871 25.871 0 0 0-2.22-4.19l-.815-1.242a1.069 1.069 0 0 0-.1-.134l-.165-.183.1-.223a3.814 3.814 0 0 0 .347-1.594 5.925 5.925 0 0 0-5.918-5.919h-4.218l.428-.594a6.664 6.664 0 0 0 1.267-3.921 7.1 7.1 0 0 0-2.351-5.271l-14.3-12.849a1.106 1.106 0 1 0-1.479 1.646l14.3 12.848a4.882 4.882 0 0 1 1.617 3.626 4.52 4.52 0 0 1-4.516 4.515h-.154a.965.965 0 0 0-.184.017l-14.839 2.51a.45.45 0 0 1-.292-.108l-.163-.176v-16.091a1.106 1.106 0 1 0-2.212 0v15.917a2.667 2.667 0 0 0 2.668 2.669 2.614 2.614 0 0 0 .448-.038l14.7-2.487h9.279a3.71 3.71 0 0 1 3.706 3.706 1.636 1.636 0 0 1-1.634 1.633H910.84a1.109 1.109 0 0 0-.421.083l-15.9 6.536a9.621 9.621 0 0 1-3.683.724 9.68 9.68 0 0 1-9.692-9.688v-22.462a1.106 1.106 0 0 0-2.212 0v22.462a11.909 11.909 0 0 0 6.1 10.392l.191.106v5.893a11.315 11.315 0 0 1-.579 3.58 42.6 42.6 0 0 0-.644 24.845l.352 1.278a1.109 1.109 0 0 0 1.066.812 1.108 1.108 0 0 0 .962-.56 1.1 1.1 0 0 0 .105-.839l-.353-1.278a40.4 40.4 0 0 1 .614-23.56 13.558 13.558 0 0 0 .693-4.278v-4.976l.466.117a11.958 11.958 0 0 0 2.933.367 11.822 11.822 0 0 0 4.525-.89l15.694-6.451h10.961a3.824 3.824 0 0 0 1.552-.329l.291-.129.786 1.2a23.89 23.89 0 0 1 2 3.727l.037.084 1.151 3.4.161.733a23.594 23.594 0 0 1-5.957 21.285 10.28 10.28 0 0 0-2.828 7.1v4.178a1.106 1.106 0 0 0 2.212 0v-4.178a8.078 8.078 0 0 1 2.222-5.575 25.853 25.853 0 0 0 5.225-27.414z" class="cls-2"/>
        </g>
    </g>
</svg>
