<svg xmlns="http://www.w3.org/2000/svg" width="85" height="85" viewBox="0 0 85 85">
    <defs>
        <style>
            .cls-1{fill:#089892}.cls-2{fill:none}
        </style>
    </defs>
    <g id="center-icon-03" transform="translate(-313 -1408)">
        <g id="그룹_225" transform="translate(323.798 1418.818)">
            <path id="패스_56335" d="M342.3 613.159a8.772 8.772 0 1 1 8.773-8.773 8.782 8.782 0 0 1-8.773 8.773zm0-15.315a6.544 6.544 0 1 0 6.541 6.542 6.549 6.549 0 0 0-6.541-6.542z" class="cls-1" transform="translate(-310.786 -557.33)"/>
            <path id="사각형_112" d="M0 0H2.231V2.231H0z" class="cls-1" transform="translate(30.406 45.942)"/>
            <path id="패스_56336" d="M311.914 617.418l-.975-32.841-2.171-.22 1.009-9.437a10.169 10.169 0 0 1 6.806-8.515l13.533-4.615 1.953-7.857h16.441l1.954 7.855 13.583 4.606a10.154 10.154 0 0 1 6.831 8.6l.924 9.36-2.233.229-.976 32.833zm47.436-31.786l1.146 29.558h5.933l.9-30.374zm-37.05 29.557h35.969l-1.409-36.309 2.229-.086.178 4.606 10.1-1.035-.707-7.15a7.927 7.927 0 0 0-5.328-6.711l-13.67-4.636-9.379 5.647-9.361-5.645-13.622 4.644a7.937 7.937 0 0 0-5.309 6.642l-.772 7.21L321.3 583.4l.18-4.636 2.228.085zm-8.216 0h5.985l1.147-29.557-8.035-.826zm18.252-53.072l7.949 4.793 7.967-4.8-1.481-5.956h-12.959z" transform="translate(-308.767 -553.931)"/>
            <path id="패스_56337" d="M342.5 598.042a6.544 6.544 0 1 0 6.541 6.542 6.549 6.549 0 0 0-6.541-6.542z" class="cls-2" transform="translate(-310.984 -557.528)"/>
        </g>
        <path id="area" d="M0 0H85V85H0z" class="cls-2" transform="translate(313 1408)"/>
    </g>
</svg>
