<svg xmlns="http://www.w3.org/2000/svg" width="85" height="85" viewBox="0 0 85 85">
    <defs>
        <style>
            .cls-2{fill:#fff}
        </style>
    </defs>
    <g id="clinic-icon-10-ffffff" transform="translate(-220 -1279)">
        <path id="area" fill="none" d="M0 0H85V85H0z" transform="translate(220 1279)"/>
        <g id="그룹_209" transform="translate(34.869 410.648)">
            <path id="패스_56275" d="M190.13 931.5l1.5 1.5 3.9-3.9-1.489-1.517z" class="cls-2"/>
            <path id="패스_56276" d="M203.779 945.148l1.5 1.5 3.916-3.916-1.519-1.486z" class="cls-2"/>
            <path id="패스_56277" d="M263.06 892.242a4.45 4.45 0 0 0-1.937-1.119l-.37-.107.176-.342a4.436 4.436 0 0 0-2.729-6.374l-.369-.108.176-.341a4.488 4.488 0 0 0-.793-5.255 4.436 4.436 0 0 0-3.158-1.3 4.585 4.585 0 0 0-2.1.51l-.342.177-.107-.37a4.491 4.491 0 0 0-7.5-1.938l-1.743 1.743-.216-.141a6.592 6.592 0 0 0-8.278.834l-7.8 7.8a12.038 12.038 0 0 0-2.9 12.4l.062.185-4.185 4.186 1.475 1.529 3.654-3.654.211.335a12.322 12.322 0 0 0 1.459 1.894l1.5-1.5a9.976 9.976 0 0 1 .22-13.867l7.8-7.8a4.457 4.457 0 0 1 6.3 0L245.96 884a2.384 2.384 0 0 1-3.371 3.372l-3.413-3.412a1.065 1.065 0 0 0-1.5 0l-5.848 5.849a1.064 1.064 0 0 0 0 1.5 7.216 7.216 0 0 1 .219 9.967l1.5 1.5a9.383 9.383 0 0 0 .657-11.963l-.164-.218.558-.561.219.291a4.781 4.781 0 0 0 .42.493 4.506 4.506 0 0 0 3.24 1.314h.325v.323a4.486 4.486 0 0 0 4.554 4.555h.324v.324a4.486 4.486 0 0 0 4.554 4.554h.325v.323a4.43 4.43 0 0 0 3 4.287l.473.167-2.646 2.647a9.979 9.979 0 0 1-13.869.22l-1.5 1.5a12.246 12.246 0 0 0 1.894 1.459l.336.211-3.654 3.655 1.505 1.5 4.209-4.209.186.061a12.169 12.169 0 0 0 3.866.629 11.983 11.983 0 0 0 8.532-3.525l4.682-4.683-.065-.093.3-.219a4.179 4.179 0 0 0 .448-.367l6.823-6.824a4.515 4.515 0 0 0-.019-6.385zm-19.233-13.384l1.686-1.686a2.385 2.385 0 0 1 3.372 3.373l-1.685 1.685zm-3.715 10.459a2.384 2.384 0 0 1-3.372 0 2.4 2.4 0 0 1-.463-.662l-.1-.2 2.244-2.245 2.4 2.4zm3.188 5.572a2.384 2.384 0 0 1-1.686-4.069l.97-.97.188.066a4.577 4.577 0 0 0 1.524.261 4.447 4.447 0 0 0 3.167-1.306 4.533 4.533 0 0 0 1.046-4.691l-.067-.188 3.9-3.894a2.384 2.384 0 0 1 3.371 3.371l-10.723 10.723a2.364 2.364 0 0 1-1.69.697zm4.874 4.875a2.384 2.384 0 0 1-1.686-4.07l8.774-8.773a2.384 2.384 0 0 1 3.371 3.371l-8.774 8.774a2.365 2.365 0 0 1-1.685.698zm13.384-2.648l-6.824 6.824a2.384 2.384 0 0 1-3.372-3.371l6.824-6.824a2.384 2.384 0 0 1 3.372 3.371z" class="cls-2"/>
            <path id="패스_56278" d="M220.431 904.2l-1.475-1.529-24.912 24.912 1.489 1.516 12.145 12.145 1.519 1.486 5.832-5.833 3.148 3.149a1.056 1.056 0 0 0 .752.311 1.073 1.073 0 0 0 .475-.112l7.8-3.9a1.065 1.065 0 0 0 .275-1.7l-5.1-5.1 11.7-11.7-1.505-1.5zm-11.251 35.546L197.035 927.6l4.346-4.347 12.146 12.147zm15.755-4.638l-5.8 2.9-16.254-16.255 4.346-4.347zm-4.057-7.06L208.733 915.9l4.347-4.346 12.145 12.146zm5.849-5.85l-12.145-12.145 4.347-4.347 12.145 12.146z" class="cls-2"/>
        </g>
    </g>
</svg>
