<svg xmlns="http://www.w3.org/2000/svg" width="85" height="85" viewBox="0 0 85 85">
    <defs>
        <style>
            .cls-1{fill:none}.cls-2{fill:#089892}
        </style>
    </defs>
    <g id="center-icon-04" transform="translate(-220 -1279)">
        <path id="area" d="M0 0H85V85H0z" class="cls-1" transform="translate(220 1279)"/>
        <g id="그룹_220" transform="translate(229.219 1289.17)">
            <g id="그룹_219" transform="translate(0 0)">
                <path id="패스_56313" d="M360.135 581a1 1 0 0 0 .97.753.994.994 0 0 0 .255-.033 1.009 1.009 0 0 0 .722-1.225 36.925 36.925 0 0 0-3.748-9.134 1.007 1.007 0 0 0-.872-.5 1.005 1.005 0 0 0-.869 1.506 34.874 34.874 0 0 1 3.542 8.633z" transform="translate(-310.912 -553.092)"/>
                <path id="패스_56314" d="M327.876 595.76c.064-.041.122-.092.184-.136z" transform="translate(-309.102 -554.66)"/>
                <path id="패스_56315" d="M344 602.431l.111.422-.129.357a27.347 27.347 0 0 0-1.607 9.79 3.562 3.562 0 0 1-2.746 3.535 3.673 3.673 0 0 1-.691.067h4.519l.586-1.629a5.808 5.808 0 0 0 .342-1.973v-.19a26.462 26.462 0 0 1 .169-3.334l.436-3.756 1.835 3.307a35.674 35.674 0 0 0 3.828 5.578l1.672 2h4.37a3.414 3.414 0 0 1-2.42-1.006 33.641 33.641 0 0 1-9.853-22.361l-.056-1.269h.079l-2.246-.069.377 3.612a35.729 35.729 0 0 0 1.424 6.919z" class="cls-2" transform="translate(-309.803 -554.424)"/>
                <path id="패스_56316" d="M318.991 590.439l.245.723a5.137 5.137 0 0 0 .977 1.716 5.464 5.464 0 0 0 4.138 1.9 5.39 5.39 0 0 0 2.958-.881l.185-.136a5.434 5.434 0 0 0 .7-.576l2.885-2.863 1.973-1.993 4.027-4.027a5.5 5.5 0 0 0 .8-1.008l1.307-2.115.866 2.331a16.977 16.977 0 0 1 .852 3.257l.059.584-.433.511-.411.465h3.007l-.126-1.082a18.9 18.9 0 0 0-3.311-8.716 1.007 1.007 0 0 0-1.723.129l-1.658 3.315a3.409 3.409 0 0 1-.648.9l-8.883 8.883a3.434 3.434 0 0 1-5.037-.193 3.617 3.617 0 0 1 .343-4.831l8.209-8.21a.981.981 0 0 0 .187-.26l4.155-8.307a3.333 3.333 0 0 1 3-1.781 3.742 3.742 0 0 1 2.266.768A25.749 25.749 0 0 1 349.877 587l.124 1.328h2l-.088-1.121a27.742 27.742 0 0 0-10.792-19.859 5.7 5.7 0 0 0-3.482-1.184 5.391 5.391 0 0 0-3.6 1.35l-.163.129-.122.058a1.055 1.055 0 0 0-.476.48l-4.553 9.075-8.06 8.06a5.781 5.781 0 0 0-1.384 2.2l-.285.814a6.828 6.828 0 0 0-.005 2.109z" transform="translate(-308.535 -552.795)"/>
                <path id="패스_56317" d="M372.5 615.269h-3.437v-21.2a5.451 5.451 0 0 0-5.443-5.446h-31.271l-1.973 1.993h7.472l2.376-.053 2.246.069h21.146a3.439 3.439 0 0 1 3.434 3.437v21.2h-53.77a2.968 2.968 0 0 1-2.951-3.3l2.37-21.34h5.555l.036.1a6.826 6.826 0 0 1 0-2.113h-5.366l1.431-12.883 2.919 1.462a.983.983 0 0 0 .447.106 1 1 0 0 0 .451-1.9l-8.883-4.44a1.005 1.005 0 0 0-.9 1.8l4.336 2.164-.384 1.023a1.024 1.024 0 0 0-.059.243l-3.951 35.557a4.982 4.982 0 0 0 4.949 5.531h59.22a1.005 1.005 0 0 0 0-2.011z" transform="translate(-307.833 -553.092)"/>
                <path id="패스_56318" d="M360.048 610.829a3.437 3.437 0 0 1-2.508 5.777h4.56l.577-1.624a5.417 5.417 0 0 0-1.158-5.524c-3.19-3.419-7.064-9.008-7.4-16.219l-.057-1.27h-2l.044 1.168c.235 6.254 2.982 12.372 7.942 17.692z" class="cls-2" transform="translate(-310.634 -554.429)"/>
                <path id="패스_56319" d="M333.123 613.165a5.419 5.419 0 0 0 .31 1.814l.572 1.622h4.562a3.432 3.432 0 0 1-3.435-3.436 33.758 33.758 0 0 1 4.821-18.159l1.872-3.111-2.376.053-1.125 1.848a35.692 35.692 0 0 0-5.201 19.369z" class="cls-2" transform="translate(-309.435 -554.424)"/>
                <path id="패스_56320" d="M326.561 567.226a7.827 7.827 0 0 0 .783-.039 7.672 7.672 0 1 0-.783.039zm-5.6-8.431a5.656 5.656 0 1 1 6.5 6.348 6.047 6.047 0 0 1-.887.067 5.651 5.651 0 0 1-5.613-6.414z" transform="translate(-308.534 -551.891)"/>
            </g>
            <path id="패스_56321" d="M321.1 558.931a5.656 5.656 0 1 1 6.5 6.348 6.056 6.056 0 0 1-.887.067 5.651 5.651 0 0 1-5.613-6.414z" class="cls-1" transform="translate(-308.67 -552.027)"/>
        </g>
    </g>
</svg>
