<?xml version="1.0" encoding="utf-8"?>
<!-- Generator: Adobe Illustrator 15.0.0, SVG Export Plug-In . SVG Version: 6.00 Build 0)  -->
<!DOCTYPE svg PUBLIC "-//W3C//DTD SVG 1.1//EN" "http://www.w3.org/Graphics/SVG/1.1/DTD/svg11.dtd">
<svg version="1.1" id="레이어_1" xmlns="http://www.w3.org/2000/svg" xmlns:xlink="http://www.w3.org/1999/xlink" x="0px"
	 y="0px" width="85px" height="85px" viewBox="0 0 85 85" enable-background="new 0 0 85 85" xml:space="preserve">
<g>
	<path fill="none" d="M0,0h84.999v85H0V0z"/>
	<g>
		<rect x="46.909" y="12.458" fill="#FFFFFF" width="16.106" height="1.84"/>
		<g>
			<line fill="none" x1="30.036" y1="77.146" x2="30.036" y2="79.443"/>
			<path fill="#FFFFFF" d="M30.036,80.363c-0.508,0-0.92-0.412-0.92-0.92v-2.297c0-0.508,0.412-0.92,0.92-0.92
				c0.508,0,0.92,0.412,0.92,0.92v2.297C30.956,79.951,30.544,80.363,30.036,80.363z"/>
		</g>
		<path fill="#FFFFFF" d="M63.938,38.973h-1.84V8.657c0-1.202-0.979-2.18-2.181-2.18h-9.91c-1.2,0-2.178,0.978-2.178,2.18v30.316
			h-1.841V8.657c0-2.216,1.803-4.021,4.019-4.021h9.91c2.217,0,4.021,1.803,4.021,4.021V38.973z"/>
		<path fill="#FFFFFF" d="M54.962,48.021c-4.946,0-8.974-4.025-8.974-8.975c0-2.24,0.908-3.375,2.697-3.375
			c0.742,0,1.566,0.188,2.521,0.407c1.134,0.259,2.419,0.554,3.754,0.554c1.336,0,2.621-0.294,3.756-0.554
			c0.954-0.219,1.779-0.407,2.521-0.407c1.789,0,2.697,1.136,2.697,3.375C63.938,43.996,59.91,48.021,54.962,48.021z M48.688,37.512
			c-0.461,0-0.857,0-0.857,1.536c0,3.934,3.199,7.134,7.133,7.134s7.135-3.2,7.135-7.134c0-1.536-0.396-1.536-0.856-1.536
			c-0.534,0-1.267,0.167-2.111,0.361c-1.168,0.268-2.622,0.6-4.166,0.6c-1.543,0-2.997-0.333-4.165-0.6
			C49.951,37.68,49.221,37.512,48.688,37.512z"/>
		<path fill="#FFFFFF" d="M54.962,80.363c-0.508,0-0.92-0.412-0.92-0.92v-2.297c0-0.508,0.412-0.92,0.92-0.92
			c0.509,0,0.92,0.412,0.92,0.92v2.297C55.882,79.951,55.471,80.363,54.962,80.363z"/>
		<circle fill="#FFFFFF" cx="54.963" cy="41.846" r="1.417"/>
		<rect x="54.042" y="73.121" fill="#FFFFFF" width="1.84" height="1.457"/>
		<path fill="#FFFFFF" d="M55.882,71.918h-1.84c0-11.387-6.679-28.066-6.746-28.232l1.707-0.689
			C49.283,43.691,55.882,60.177,55.882,71.918z"/>
		<path fill="#FFFFFF" d="M55.884,71.918h-1.84c0-11.741,6.599-28.227,6.879-28.922l1.707,0.689
			C62.563,43.852,55.884,60.537,55.884,71.918z"/>
		<rect x="21.982" y="12.458" fill="#FFFFFF" width="16.106" height="1.84"/>
		<path fill="#FFFFFF" d="M39.011,38.973h-1.84V8.657c0-1.202-0.979-2.18-2.181-2.18h-9.91c-1.2,0-2.178,0.978-2.178,2.18v30.316
			h-1.841V8.657c0-2.216,1.803-4.021,4.019-4.021h9.91c2.217,0,4.021,1.803,4.021,4.021V38.973z"/>
		<path fill="#FFFFFF" d="M30.035,48.021c-4.946,0-8.974-4.025-8.974-8.975c0-2.24,0.908-3.375,2.697-3.375
			c0.742,0,1.566,0.188,2.521,0.407c1.134,0.259,2.419,0.554,3.754,0.554c1.336,0,2.621-0.294,3.756-0.554
			c0.954-0.219,1.779-0.407,2.521-0.407c1.789,0,2.697,1.136,2.697,3.375C39.011,43.996,34.983,48.021,30.035,48.021z
			 M23.761,37.512c-0.461,0-0.857,0-0.857,1.536c0,3.934,3.199,7.134,7.133,7.134s7.135-3.2,7.135-7.134
			c0-1.536-0.396-1.536-0.856-1.536c-0.534,0-1.267,0.167-2.111,0.361c-1.168,0.268-2.622,0.6-4.166,0.6
			c-1.543,0-2.997-0.333-4.165-0.6C25.024,37.68,24.294,37.512,23.761,37.512z"/>
		<circle fill="#FFFFFF" cx="30.036" cy="41.846" r="1.417"/>
		<rect x="29.115" y="73.121" fill="#FFFFFF" width="1.84" height="1.457"/>
		<path fill="#FFFFFF" d="M30.955,71.918h-1.84c0-11.387-6.679-28.066-6.746-28.232l1.707-0.689
			C24.356,43.691,30.955,60.177,30.955,71.918z"/>
		<path fill="#FFFFFF" d="M30.957,71.918h-1.84c0-11.741,6.599-28.227,6.879-28.922l1.707,0.689
			C37.636,43.852,30.957,60.537,30.957,71.918z"/>
	</g>
</g>
</svg>
