<svg xmlns="http://www.w3.org/2000/svg" width="85" height="85" viewBox="0 0 85 85">
    <defs>
        <style>
            .cls-2{fill:#fff}
        </style>
    </defs>
    <g id="clinic-icon-04-ffffff" transform="translate(-220 -1279)">
        <path id="area" fill="none" d="M0 0H85V85H0z" transform="translate(220 1279)"/>
        <g id="그룹_143" transform="translate(-191.83 537.6)">
            <path id="패스_56236" d="M457.657 816.072a28.787 28.787 0 0 1-19.443-7.537l-1.219-1.114a3.056 3.056 0 0 0-5.115 2.258v5.251a1.144 1.144 0 0 1-1.142 1.142h-7.766a1.144 1.144 0 0 1-1.142-1.142v-5.218a15.727 15.727 0 0 1 24.063-13.337 3.309 3.309 0 0 0 3.378.094 3.3 3.3 0 0 0 1.728-2.9l.084-15.141a17.5 17.5 0 0 1 1.711-7.588l.232-.487-.365-.4a23.729 23.729 0 0 1-6.238-16.042v-1.367a1.143 1.143 0 0 1 1.142-1.141h7.766a1.143 1.143 0 0 1 1.142 1.141v1.367a13.65 13.65 0 0 0 3.079 8.652l.415.507.578-.306a17.7 17.7 0 0 1 25.955 15.665v8.8a28.847 28.847 0 0 1-28.845 28.846zm-22.721-11.733a5.328 5.328 0 0 1 3.6 1.4l1.219 1.113a26.562 26.562 0 0 0 44.465-19.622v-8.8a15.426 15.426 0 1 0-30.852 0l-.084 15.148a5.555 5.555 0 0 1-2.91 4.892 5.543 5.543 0 0 1-5.689-.158 13.444 13.444 0 0 0-20.569 11.4v4.076h5.484v-4.109a5.347 5.347 0 0 1 5.336-5.34zm13.778-49.833a21.409 21.409 0 0 0 4.881 13.037l.633.769.615-.783a17.869 17.869 0 0 1 2.607-2.69l.594-.5-.477-.61a15.924 15.924 0 0 1-3.368-9.277l-.027-.773h-5.481z" class="cls-2"/>
            <path id="패스_56237" fill="none" d="M447.448 802.594l-1.142 4.029s3.4 3.92 11.66 3.517 15.611-4.087 19.194-11a23.37 23.37 0 0 0 2.8-8.293h-23.246s.4 4.415-.974 7.219c-2.314 4.708-8.292 4.528-8.292 4.528z" opacity="0.4"/>
            <path id="패스_56238" d="M477.531 792.843a27.477 27.477 0 0 1-2.147 5.373c-3.063 5.915-9.448 9.533-17.515 9.926q-.555.027-1.079.027a13.892 13.892 0 0 1-8.214-2.22l.41-1.448c2.325-.282 6.5-1.378 8.55-5.558a15.173 15.173 0 0 0 1.233-6.1h18.762m2.43-2h-23.247s.4 4.415-.974 7.219c-2.15 4.378-7.463 4.533-8.206 4.533h-.086l-1.142 4.029s3.077 3.546 10.484 3.546q.571 0 1.176-.029c8.259-.4 15.611-4.087 19.194-11a23.37 23.37 0 0 0 2.8-8.293z" class="cls-2"/>
        </g>
    </g>
</svg>
