<svg xmlns="http://www.w3.org/2000/svg" width="85" height="85" viewBox="0 0 85 85">
    <defs>
        <style>
            .cls-2{fill:#fff}
        </style>
    </defs>
    <g id="clinic-icon-08-ffffff" transform="translate(-220 -1279)">
        <path id="area" fill="none" d="M0 0H85V85H0z" transform="translate(220 1279)"/>
        <g id="그룹_239">
            <path id="Shape" d="M925.643 790.539a6.786 6.786 0 0 0-1.641.224 4.073 4.073 0 0 1-4.81-1.8.237.237 0 0 0-.017-.036 6.323 6.323 0 0 0-1.728-2.053 4.9 4.9 0 0 0 .2-1.306 6.657 6.657 0 0 0-.677-2.934 14.34 14.34 0 0 1 3.634-1.416c.03-.01.1.011.214.1a5.61 5.61 0 0 0 5.135.613 5.5 5.5 0 0 0 3.319-3.519 5.409 5.409 0 0 0-.879-4.769 5.563 5.563 0 0 0-4.412-2.178 4.886 4.886 0 0 0-1.5.2 3.7 3.7 0 0 1-4.253-1.5l-.046-.1a5.77 5.77 0 0 0-1.676-1.907 4.351 4.351 0 0 0 .235-1.375 6.466 6.466 0 0 0-.582-2.683 12.474 12.474 0 0 1 3.089-1.247.267.267 0 0 1 .171.059 5.081 5.081 0 0 0 4.676.59 4.952 4.952 0 0 0 3.049-3.306 5.136 5.136 0 0 0-.841-4.523 5 5 0 0 0-4-2 5.708 5.708 0 0 0-1.389.18 3.062 3.062 0 0 1-3.669-1.38 5.722 5.722 0 0 1-.32-.748 2.993 2.993 0 0 0-2.8-2.06H902.1a2.981 2.981 0 0 0-2.79 2.043 5.808 5.808 0 0 1-.34.78 3.073 3.073 0 0 1-3.7 1.356 5.088 5.088 0 0 0-5.353 1.822 5.145 5.145 0 0 0-.839 4.533 4.943 4.943 0 0 0 3.042 3.294 5.075 5.075 0 0 0 4.665-.574c.075-.05.148-.076.124-.083a10.992 10.992 0 0 1 3.132 1.3 6.491 6.491 0 0 0-.563 2.647 4.384 4.384 0 0 0 .236 1.376 5.743 5.743 0 0 0-1.677 1.908c-.017.033-.032.065-.046.1a3.679 3.679 0 0 1-4.2 1.513 4.971 4.971 0 0 0-1.547-.214 5.565 5.565 0 0 0-4.416 2.178 5.429 5.429 0 0 0-.87 4.8 5.49 5.49 0 0 0 3.313 3.486 5.638 5.638 0 0 0 5.189-.642.231.231 0 0 1 .177-.061 13.132 13.132 0 0 1 3.608 1.439 6.685 6.685 0 0 0-.66 2.908 4.9 4.9 0 0 0 .207 1.306 6.316 6.316 0 0 0-1.727 2.052l-.013.022a4.076 4.076 0 0 1-4.862 1.8 6.72 6.72 0 0 0-1.6-.214 5.945 5.945 0 0 0-2.148 11.5 6.152 6.152 0 0 0 5.548-.68.484.484 0 0 1 .372-.112 15.028 15.028 0 0 1 4.12 1.661 7.4 7.4 0 0 0-.772 3.306c0 4.7 6.063 7.583 10.409 7.583s10.409-2.886 10.409-7.578a7.508 7.508 0 0 0-.768-3.314 15.324 15.324 0 0 1 4.151-1.661.525.525 0 0 1 .321.113 6.173 6.173 0 0 0 5.58.682 5.947 5.947 0 0 0-2.164-11.5zm3.687 7.062a3.778 3.778 0 0 1-2.245 2.425 3.975 3.975 0 0 1-3.645-.427 2.514 2.514 0 0 0-2.066-.427 17.335 17.335 0 0 0-4.694 1.883 2.15 2.15 0 0 0-.846 2.8 5.307 5.307 0 0 1 .551 2.36c0 3.013-4.523 5.441-8.271 5.441s-8.273-2.428-8.273-5.44a5.3 5.3 0 0 1 .552-2.36 2.148 2.148 0 0 0-.848-2.8 17.236 17.236 0 0 0-4.658-1.873 2.533 2.533 0 0 0-2.115.421 3.961 3.961 0 0 1-3.612.428 3.818 3.818 0 0 1 2.477-7.215 6.18 6.18 0 0 0 7.3-2.869v-.005l.009-.017a4.226 4.226 0 0 1 .871-1.118 7.606 7.606 0 0 0 1.222 1.2 1.069 1.069 0 0 0 1.319-1.683 4.824 4.824 0 0 1-1.326-1.524.975.975 0 0 0-.058-.1c-.031-.066-.059-.13-.081-.191a2.981 2.981 0 0 1-.178-.948 4.577 4.577 0 0 1 .454-1.992 2.158 2.158 0 0 0-.874-2.81 16.439 16.439 0 0 0-4.15-1.62 2.305 2.305 0 0 0-1.924.4 3.513 3.513 0 0 1-3.221.37 3.3 3.3 0 0 1-1.991-2.082 3.249 3.249 0 0 1 .523-2.9 3.371 3.371 0 0 1 2.712-1.332 3 3 0 0 1 .941.124 5.808 5.808 0 0 0 6.722-2.611.876.876 0 0 0 .045-.092 3.647 3.647 0 0 1 .839-.995 8.065 8.065 0 0 0 1.025.991 1.069 1.069 0 0 0 1.355-1.655 4.745 4.745 0 0 1-1.131-1.241c-.015-.031-.032-.062-.05-.093a2.359 2.359 0 0 1-.368-1.24A4.351 4.351 0 0 1 902 765a2.176 2.176 0 0 0-.877-2.758 14.765 14.765 0 0 0-3.753-1.49 2.394 2.394 0 0 0-1.795.412 2.918 2.918 0 0 1-2.72.329 2.8 2.8 0 0 1-1.716-1.867 3.019 3.019 0 0 1 .482-2.658 2.872 2.872 0 0 1 2.3-1.159 3.555 3.555 0 0 1 .8.1 5.158 5.158 0 0 0 6.142-2.425 7.668 7.668 0 0 0 .465-1.068.841.841 0 0 1 .774-.612h12.036a.847.847 0 0 1 .778.628 7.685 7.685 0 0 0 .452 1.037 5.155 5.155 0 0 0 6.113 2.45 2.948 2.948 0 0 1 3.134 1.043 3.016 3.016 0 0 1 .488 2.644 2.815 2.815 0 0 1-1.725 1.879 2.926 2.926 0 0 1-2.73-.341 2.418 2.418 0 0 0-1.839-.383 14.688 14.688 0 0 0-3.7 1.483 2.175 2.175 0 0 0-.864 2.757 4.315 4.315 0 0 1 .379 1.777 2.371 2.371 0 0 1-.369 1.24c-.018.032-.036.065-.052.1l-.011.017a4.588 4.588 0 0 1-1.124 1.229 1.07 1.07 0 0 0 1.356 1.656 8.149 8.149 0 0 0 1.026-.991 3.715 3.715 0 0 1 .838.993.727.727 0 0 0 .045.093 5.824 5.824 0 0 0 6.774 2.6 2.971 2.971 0 0 1 .89-.108 3.38 3.38 0 0 1 2.712 1.333 3.237 3.237 0 0 1 .535 2.872 3.312 3.312 0 0 1-2.022 2.107 3.486 3.486 0 0 1-3.168-.345 2.324 2.324 0 0 0-1.96-.427 16.459 16.459 0 0 0-4.154 1.628 2.16 2.16 0 0 0-.873 2.817 4.568 4.568 0 0 1 .45 1.986 2.924 2.924 0 0 1-.173.936c-.026.069-.053.136-.084.2a.909.909 0 0 0-.068.116 4.661 4.661 0 0 1-1.317 1.52 1.068 1.068 0 0 0 1.318 1.68 7.475 7.475 0 0 0 1.229-1.209 4.176 4.176 0 0 1 .855 1.1l.019.035a6.17 6.17 0 0 0 7.268 2.877 4.64 4.64 0 0 1 1.087-.149 3.831 3.831 0 0 1 3.089 1.531 3.785 3.785 0 0 1 .6 3.387z" class="cls-2" transform="translate(-645.606 539.333)"/>
            <path id="Shape-2" d="M911.32 753.942a1.07 1.07 0 0 0-1.069 1.069 23.718 23.718 0 0 1-2.137 10.605 23.731 23.731 0 0 1-2.138-10.605 1.069 1.069 0 0 0-2.138 0 26.379 26.379 0 0 0 3.086 13.093 29.32 29.32 0 0 0 0 26.187 26.4 26.4 0 0 0-3.086 13.094 1.069 1.069 0 0 0 2.138 0 23.735 23.735 0 0 1 2.138-10.606 23.722 23.722 0 0 1 2.137 10.606 1.07 1.07 0 0 0 2.139 0 26.4 26.4 0 0 0-3.086-13.094 29.32 29.32 0 0 0 0-26.187 26.4 26.4 0 0 0 3.086-13.093 1.07 1.07 0 0 0-1.07-1.069zm-3.206 37.858a27.371 27.371 0 0 1 0-21.21 27.383 27.383 0 0 1 0 21.21z" class="cls-2" transform="translate(-645.606 539.333)"/>
        </g>
    </g>
</svg>
