<svg xmlns="http://www.w3.org/2000/svg" width="85" height="85" viewBox="0 0 85 85">
    <defs>
        <style>
            .cls-2{fill:#089892}
        </style>
    </defs>
    <g id="clinic-icon-15" transform="translate(-220 -1279)">
        <path id="area" fill="none" d="M0 0H85V85H0z" transform="translate(220 1279)"/>
        <g id="그룹_214" transform="translate(-529.057 411.935)">
            <path id="패스_56294" d="M816.876 915.124a3.681 3.681 0 0 1-3.677-3.677 3.643 3.643 0 0 1 .357-1.586l.126-.261-3.135-3.135-.261.126a3.678 3.678 0 1 1-1.585-7 3.705 3.705 0 0 1 .88.107l.281.069 3.041-4.579-3.125-5.548h-6.8a.952.952 0 0 1-.821-.471l-3.543-6.062-3.555-1.868-.213.2a3.67 3.67 0 1 1 1.142-2.169l-.041.287 2.984 1.567 3.223-5.583a.953.953 0 0 1 .824-.477h7.363a.953.953 0 0 1 .826.478l3.41 5.933h6.8a.956.956 0 0 1 .825.474l3.682 6.348a.956.956 0 0 1 0 .95l-3.682 6.455a.957.957 0 0 1-.828.481h-6.852l-3.076 4.633.175.233a3.677 3.677 0 0 1 .393 3.806l-.126.262 3.134 3.135.261-.126a3.644 3.644 0 0 1 1.586-.357 3.677 3.677 0 1 1 0 7.354zm0-5.45a1.773 1.773 0 1 0 1.774 1.773 1.775 1.775 0 0 0-1.774-1.773zM808.7 901.5a1.773 1.773 0 1 0 1.773 1.774 1.776 1.776 0 0 0-1.773-1.774zm2.736-12.793l3.139 5.574h6.252l3.136-5.5-3.132-5.406h-6.269zm-11.036-6.316l3.126 5.348h6.274l3.124-5.323-3.131-5.446h-6.262zm-8.05-5.421a1.774 1.774 0 1 0 1.773 1.774 1.775 1.775 0 0 0-1.774-1.774z" class="cls-2"/>
            <path id="패스_56295" d="M782.946 913.217a3.681 3.681 0 0 1-3.677-3.678c0-1.626 2.023-4.731 2.894-5.992a.954.954 0 0 1 1.567 0c.87 1.261 2.894 4.366 2.894 5.992a3.682 3.682 0 0 1-3.678 3.678zm-.352-6.812a10.971 10.971 0 0 0-1.42 3.125 1.773 1.773 0 1 0 3.545.011 10.842 10.842 0 0 0-1.42-3.136l-.352-.6z" class="cls-2"/>
            <path id="패스_56296" d="M789.078 944.013a.953.953 0 0 1 0-1.905h14.717a3.14 3.14 0 0 0 3.136-3.135 3.1 3.1 0 0 0-.374-1.486l-8.448-16.094h-30.325s-8.394 15.991-8.45 16.1a3.1 3.1 0 0 0-.372 1.484 3.14 3.14 0 0 0 3.136 3.135h21.317a.953.953 0 0 1 0 1.905H762.1a5.04 5.04 0 0 1-4.442-7.423l15.707-29.922.047-12.528h-1.773a.953.953 0 0 1-.953-.952v-5.451a.954.954 0 0 1 .953-.953h22.62a.954.954 0 0 1 .952.953v5.451a.953.953 0 0 1-.952.952h-1.774v12.338l15.752 30.108a5.042 5.042 0 0 1-4.44 7.427zm-13.765-37.2a.963.963 0 0 1-.108.443l-6.421 12.231h28.325l-6.421-12.231a.964.964 0 0 1-.109-.443V894.14h-15.266zm-2.725-14.579H793.3v-3.544h-20.712z"/>
        </g>
    </g>
</svg>
