<svg xmlns="http://www.w3.org/2000/svg" width="85" height="85" viewBox="0 0 85 85">
    <defs>
        <style>
            .cls-2{fill:#fff}
        </style>
    </defs>
    <g id="clinic-icon-13-ffffff" transform="translate(-220 -1279)">
        <path id="area" fill="none" d="M0 0H85V85H0z" transform="translate(220 1279)"/>
        <g id="그룹_212" transform="translate(-301.705 410.923)">
            <path id="패스_56286" d="M544.423 945.794a.918.918 0 0 1-.653-.271l-13.794-13.795a.923.923 0 1 1 1.3-1.305l4.295 4.293 8.349-8.35-8.431-8.432a.923.923 0 1 1 1.3-1.306l4.532 4.531 26.379-26.365a3.682 3.682 0 0 1 5.208 0l1.3 1.3 4.865-4.865a.922.922 0 0 1 1.306 0l1.3 1.3 16.176-16.176a.923.923 0 1 1 1.306 1.306l-16.186 16.171 1.3 1.3a.925.925 0 0 1 0 1.306l-4.865 4.865 1.3 1.3a3.687 3.687 0 0 1 0 5.208l-26.37 26.359 4.531 4.531a.924.924 0 0 1-1.306 1.307l-8.432-8.433-8.35 8.351 4.293 4.294a.923.923 0 0 1-.653 1.576zm-7.542-9.772l2.6 2.6 8.35-8.349-2.6-2.6zm5.756-13.557l10.4 10.4 3.738-3.738-10.4-10.4zm27.662-26.9a1.821 1.821 0 0 0-1.3.539l-21.321 21.32 10.4 10.4 4.9-4.9-5.2-5.2a.924.924 0 0 1 .654-1.577.917.917 0 0 1 .652.27l5.2 5.2 4.216-4.217-5.2-5.2a.923.923 0 1 1 1.306-1.306l5.2 5.2 4.212-4.211-5.2-5.2a.924.924 0 0 1 .653-1.577.914.914 0 0 1 .653.271l5.2 5.2 4.076-4.077a1.838 1.838 0 0 0 0-2.6l-7.8-7.8a1.825 1.825 0 0 0-1.3-.539zm5.208 1.836l2.595 2.6 4.211-4.211-2.595-2.6z" class="cls-2"/>
            <path id="패스_56287" d="M581.531 945.794a.925.925 0 0 1-.924-.924v-18.389h-2.249a.924.924 0 0 1-.923-.923v-5.518a.924.924 0 0 1 .923-.924h11.45a.923.923 0 0 1 0 1.847h-10.527v3.672h18.294v-3.672h-2.939a.923.923 0 1 1 0-1.847h3.864a.924.924 0 0 1 .923.924v5.518a.924.924 0 0 1-.923.923h-2.249v18.389a.925.925 0 0 1-.923.924zm.923-1.847H594.4v-7.8l-.446-.01a14.081 14.081 0 0 1-5.941-1.473 12.252 12.252 0 0 0-5.092-1.277l-.469-.013zm0-12.421l.446.01a14.066 14.066 0 0 1 5.941 1.473 12.222 12.222 0 0 0 5.092 1.276l.469.014v-7.818h-11.948z" class="cls-2"/>
        </g>
    </g>
</svg>
