<svg xmlns="http://www.w3.org/2000/svg" width="85" height="85" viewBox="0 0 85 85">
    <defs>
        <style>
            .cls-1{fill:none}
        </style>
    </defs>
    <g id="center-icon-02" transform="translate(-220 -1279)">
        <path id="area" d="M0 0H85V85H0z" class="cls-1" transform="translate(220 1279)"/>
        <g id="그룹_217" transform="translate(231 1286)">
            <path id="패스_56302" d="M222.81 621.368a3.37 3.37 0 0 1-3.18-2.289c-1.142-3.32-2.705-5.706-4.4-6.717l-.082-.047-.088.031a95.8 95.8 0 0 1-9.955 2.985 4.172 4.172 0 0 1-4.919-2.993 6.6 6.6 0 0 1-.191-4.123 2.726 2.726 0 0 0 .1-1.421c-.121-.475-.48-.7-1.156-1.085a8.139 8.139 0 0 1-.813-.5 1.49 1.49 0 0 1-.614-1.017 2.755 2.755 0 0 1 .356-1.592l.086-.152-.138-.106c-.4-.3-.83-.645-1.084-.868-.9-.758-.461-1.723.108-2.729.173-.308.35-.623.521-.986a2.225 2.225 0 0 0 .146-1.317c-.07-.375-.731-.741-1.524-1.146a8.531 8.531 0 0 1-1.215-.707 3.245 3.245 0 0 1-1.647-2.211c-.121-1.333.93-2.69 4.608-6.652a7.4 7.4 0 0 0 1.722-3.969 3.545 3.545 0 0 1 .38-1 2.335 2.335 0 0 0 .247-.6c0-.474-.385-.86-1.022-1.446a4.345 4.345 0 0 1-1.666-2.539 6.955 6.955 0 0 1 .952-3.412 16.337 16.337 0 0 0 1.069-2.829l.1-.418a31.536 31.536 0 0 1 1.069-3.858 22.174 22.174 0 0 1 4.7-7.686c3.175-3.359 7.6-4.733 11.507-5.633a57.079 57.079 0 0 1 12.823-1.73c6.975 0 12.63 2.108 18.906 7.045a19.587 19.587 0 0 1 7 10.1 35.365 35.365 0 0 1 1.228 10.011c-.085 6.047-2.722 9.609-5.048 12.753a26.05 26.05 0 0 0-3.156 5.007 20.319 20.319 0 0 0-1.56 10.523 32.654 32.654 0 0 0 2.743 10.467 3.356 3.356 0 0 1-3 4.859H222.81zm4.121-18.533a.954.954 0 0 1 .952.958c.068 2.866-2.422 5.111-7.4 6.679-.329.1-1 .337-1.875.646l-1.173.411.207.224a17.4 17.4 0 0 1 3.848 6.682 1.4 1.4 0 0 0 1.318.962h23.914a1.386 1.386 0 0 0 1.244-1.988 34.476 34.476 0 0 1-2.945-11.125 22.291 22.291 0 0 1 1.71-11.545 27.835 27.835 0 0 1 3.374-5.39c2.365-3.194 4.594-6.2 4.67-11.618a33.425 33.425 0 0 0-1.154-9.447 17.428 17.428 0 0 0-6.328-9.087c-5.045-3.968-9.974-6.612-17.619-6.612a56.174 56.174 0 0 0-12.452 1.666c-3.8.876-7.708 2.1-10.517 5.069a20.283 20.283 0 0 0-4.287 7.017 30.15 30.15 0 0 0-1 3.619l-.094.41a17.86 17.86 0 0 1-1.172 3.17 7.837 7.837 0 0 0-.808 2.312c.059.493.524.923 1.016 1.379a3.993 3.993 0 0 1 1.7 2.873 3.322 3.322 0 0 1-.458 1.528 3.227 3.227 0 0 0-.2.43 9.346 9.346 0 0 1-2.233 5.013c-2.5 2.7-4.062 4.5-4.081 5.137v.089l.064.061a6.687 6.687 0 0 0 .809.663 7.228 7.228 0 0 0 .925.522c.969.5 2.305 1.18 2.563 2.538a4.178 4.178 0 0 1-.305 2.53c-.2.416-.4.785-.585 1.1-.052.089-.244.442-.244.442l.1.157c.489.39 1.167.9 1.453 1.113a.984.984 0 0 1 .189 1.4 4.549 4.549 0 0 0-.477.774l-.08.166.418.241a3.731 3.731 0 0 1 2.087 2.312 4.57 4.57 0 0 1-.091 2.34 4.582 4.582 0 0 0 .124 3.039 2.263 2.263 0 0 0 2.223 1.756 2.239 2.239 0 0 0 .437-.042 99.013 99.013 0 0 0 10.188-3.084c.97-.332 1.858-.644 2.62-.912l.441-.155c.9-.318 1.588-.558 1.933-.667 5.033-1.582 6.054-3.454 6.024-4.746a.987.987 0 0 1 .963-1.008z" transform="translate(-193.115 -550.604)"/>
            <path id="패스_56303" fill="#089892" d="M237.273 614.857a.958.958 0 0 1-.7-.317.937.937 0 0 1-.223-.676c.3-4.217.142-15.909-4.124-19.322-3.485-2.8-1.287-7.185.652-11.054.579-1.156 1.125-2.247 1.545-3.3.781-1.953.89-3.29.344-4.212a2.359 2.359 0 0 0-.382-.5 8.057 8.057 0 0 0-2.632-1.578c-.057-.027-.086-.042-.115-.058a31.338 31.338 0 0 0-4.686-1.438l-.054-.011-.05.018a5.971 5.971 0 0 0-.853.381 11.66 11.66 0 0 0-3.559 3.272l-.091.13.11.112a4.3 4.3 0 0 1-3.076 7.3 4.265 4.265 0 0 1-1.673-.339 4.3 4.3 0 0 1 1.675-8.256 4.206 4.206 0 0 1 1.213.194l.13.041.08-.11a15.588 15.588 0 0 1 2.935-3.077l.324-.257-.585-.109c-3.387-.616-6.657-.986-8.805-1.187l-.147-.014-.048.14a4.3 4.3 0 0 1-4.057 2.885 4.391 4.391 0 0 1-.9-.095 4.3 4.3 0 0 1 .713-8.5l.182-.005a4.289 4.289 0 0 1 4.238 3.581l.024.143.144.013c1.4.134 3.563.367 5.963.718l.384.056-.193-.336a9.949 9.949 0 0 1-.932-2.208l-.034-.117-.12-.019a4.292 4.292 0 0 1 .159-8.513 4.692 4.692 0 0 1 .47-.025 4.293 4.293 0 0 1 1.525 8.3l-.17.064.06.173a7.318 7.318 0 0 0 2.1 3.131l.039.034.051.01c.918.166 1.893.362 2.918.593 1.132.258 2.179.538 3.114.831l.294.092-.052-.3a14.484 14.484 0 0 1 .221-5.9l.032-.132-.115-.072a4.319 4.319 0 1 1 2.3.662l-.117-.008a.849.849 0 0 0-.141-.014h-.153l-.032.149c-.4 1.878-.654 4.521.359 6.45l.032.06.062.026a10.836 10.836 0 0 1 2.275 1.308l.182.137.1-.2a13.438 13.438 0 0 1 3.264-4.231l.088-.077-.03-.114a4.472 4.472 0 1 1 1.067 1.919l-.13-.139-.138.131a12.293 12.293 0 0 0-2.913 4.332l-.028.067.026.069a5.561 5.561 0 0 1 .143 3.452l-.062.224.232.014a6.153 6.153 0 0 1 3.913 1.736l.094.09.119-.055a4.291 4.291 0 0 1 1.866-.423 4.353 4.353 0 1 1-3.532 1.814l.092-.128-.111-.113a3.471 3.471 0 0 0-2.473-1.043 3.425 3.425 0 0 0-.813.1l-.093.021-.037.088c-.437 1.035-.958 2.095-1.409 2.994-2.092 4.179-3.3 7.046-1.152 8.77 5.921 4.735 4.862 20.245 4.814 20.9a.932.932 0 0 1-.926.863zm5.586-32.4a2.424 2.424 0 1 0 2.424 2.424 2.427 2.427 0 0 0-2.424-2.429zm-23.465-5.587a2.424 2.424 0 1 0 2.423 2.424 2.426 2.426 0 0 0-2.423-2.429zm-8.939-10.056a2.423 2.423 0 1 0 2.423 2.423 2.427 2.427 0 0 0-2.423-2.428zm32.4-1.118a2.424 2.424 0 1 0 2.424 2.424 2.427 2.427 0 0 0-2.42-2.429zm-22.343-5.596a2.424 2.424 0 1 0 2.423 2.424 2.427 2.427 0 0 0-2.423-2.424zm12.291-1.117a2.424 2.424 0 1 0 2.424 2.424 2.427 2.427 0 0 0-2.427-2.421z" transform="translate(-193.115 -550.604)"/>
            <path id="패스_56304" d="M242.859 582.452a2.424 2.424 0 1 0 2.424 2.424 2.427 2.427 0 0 0-2.424-2.424z" class="cls-1" transform="translate(-193.115 -550.604)"/>
            <path id="패스_56305" d="M219.394 576.865a2.424 2.424 0 1 0 2.423 2.424 2.426 2.426 0 0 0-2.423-2.424z" class="cls-1" transform="translate(-193.115 -550.604)"/>
            <path id="패스_56306" d="M210.455 566.809a2.424 2.424 0 1 0 2.423 2.423 2.427 2.427 0 0 0-2.423-2.423z" class="cls-1" transform="translate(-193.115 -550.604)"/>
            <path id="패스_56307" d="M242.859 565.691a2.424 2.424 0 1 0 2.424 2.424 2.427 2.427 0 0 0-2.424-2.424z" class="cls-1" transform="translate(-193.115 -550.604)"/>
            <path id="패스_56308" d="M220.512 560.1a2.424 2.424 0 1 0 2.423 2.424 2.427 2.427 0 0 0-2.423-2.424z" class="cls-1" transform="translate(-193.115 -550.604)"/>
            <path id="패스_56309" d="M232.8 558.986a2.424 2.424 0 1 0 2.424 2.424 2.427 2.427 0 0 0-2.424-2.424z" class="cls-1" transform="translate(-193.115 -550.604)"/>
        </g>
    </g>
</svg>
