<svg xmlns="http://www.w3.org/2000/svg" width="85" height="85" viewBox="0 0 85 85">
    <defs>
        <style>
            .cls-2{fill:#089892}
        </style>
    </defs>
    <g id="center-icon-09" transform="translate(-220 -1279)">
        <path id="area" fill="none" d="M0 0H85V85H0z" transform="translate(220 1279)"/>
        <g id="그룹_331" transform="translate(33.95 741.081)">
            <path id="패스_56384" d="M253.293 549.919h-48.92a3.326 3.326 0 0 0-3.323 3.323v55.281a3.327 3.327 0 0 0 3.323 3.324h48.92a3.328 3.328 0 0 0 3.323-3.324v-55.281a3.327 3.327 0 0 0-3.323-3.323zm-28.854 15.517v-13.763h8.787v13.763a.88.88 0 0 0 .7.861 5.711 5.711 0 0 1-1.144 11.306 5.67 5.67 0 0 1-3.426-1.141 5.741 5.741 0 0 1-2.285-4.57.876.876 0 1 0-1.752 0 7.507 7.507 0 0 0 1.743 4.792l.309.372-.451.172a5.712 5.712 0 1 1-3.186-10.931.88.88 0 0 0 .705-.861zm0 44.656v-13.759a.88.88 0 0 0-.7-.859 5.711 5.711 0 1 1 6.854-5.6.876.876 0 1 0 1.752 0 7.5 7.5 0 0 0-1.743-4.789l-.309-.371.451-.175a5.712 5.712 0 1 1 3.186 10.932.88.88 0 0 0-.7.859v13.759zm30.423-1.569a1.571 1.571 0 0 1-1.57 1.569h-18.313v-13.073l.234-.081a7.465 7.465 0 1 0-6.2-13.5l-.177.105-.176-.105a7.465 7.465 0 1 0-6.2 13.5l.234.081v13.073h-18.321a1.571 1.571 0 0 1-1.57-1.569v-55.281a1.571 1.571 0 0 1 1.57-1.569h18.314v13.08l-.234.08a7.465 7.465 0 1 0 6.2 13.5l.177-.106.176.106a7.466 7.466 0 1 0 6.2-13.5l-.234-.08v-13.08h18.314a1.571 1.571 0 0 1 1.57 1.569z"/>
            <g id="그룹_329">
                <path id="패스_56385" d="M213.659 590.753a.746.746 0 0 1-.5-.192 12.97 12.97 0 0 1 0-19.357.75.75 0 0 1 1 1.117 11.468 11.468 0 0 0 0 17.123.751.751 0 0 1-.5 1.309z" class="cls-2"/>
            </g>
            <g id="그룹_330">
                <path id="패스_56386" d="M244.007 590.753a.751.751 0 0 1-.5-1.309 11.468 11.468 0 0 0 0-17.123.75.75 0 0 1 1-1.117 12.97 12.97 0 0 1 0 19.357.748.748 0 0 1-.5.192z" class="cls-2"/>
            </g>
        </g>
    </g>
</svg>
