<svg xmlns="http://www.w3.org/2000/svg" width="85" height="85" viewBox="0 0 85 85">
    <g>
        <path fill="none" d="M0 0H85V85H0z" transform="translate(-220 -1279) translate(220 1279)"/>
        <g>
            <path d="M145.665 916.193a10.309 10.309 0 0 0 .858-12.3 6.51 6.51 0 0 0-5.073-9.059 14.247 14.247 0 0 0-14-12.069c-.278 0-.57.033-.855.049a6.52 6.52 0 0 0-10.5-1.192 11.4 11.4 0 0 0-6.632-2.127 11.523 11.523 0 0 0-9.311 4.815 8.159 8.159 0 0 0-10.845 7.553 6.413 6.413 0 0 0-4.151 7.739 13.448 13.448 0 0 0-2.4 7.688A13.612 13.612 0 0 0 100.1 920.4a10.324 10.324 0 0 0 16.693 2.918 16.124 16.124 0 0 0 4.147.825c.2 4.077 1.769 6.52 8.349 8.713 4.271 1.424 5.411 4.315 5.71 5.912a2.194 2.194 0 0 0 2.165 1.772h3.325a2.181 2.181 0 0 0 2.181-2.308c-.163-2.616-.889-8.678-4.05-12.524a14.25 14.25 0 0 0 7.045-9.515zm-9.292 8.188a1.12 1.12 0 0 0-.291 1.8c3.488 3.125 4.242 9.556 4.4 12.172h-3.347c-.312-1.665-1.635-5.735-7.164-7.578-5.622-1.874-6.7-3.575-6.859-6.639h.059a16.271 16.271 0 0 0 3.634-.671 1.09 1.09 0 1 0-.64-2.084 14.094 14.094 0 0 1-3.169.582 13.731 13.731 0 0 1-6.121-.923 1.1 1.1 0 0 0-1.221.3 8.169 8.169 0 0 1-13.913-2.669v-.007a8.124 8.124 0 0 1 .711-6.867 1.09 1.09 0 0 0-1.869-1.123 10.279 10.279 0 0 0-1.1 2.576 3.222 3.222 0 0 1-3.646-3.241v-.044a1.072 1.072 0 0 0-1.09-1.069 1.11 1.11 0 0 0-1.09 1.113 5.458 5.458 0 0 0 5.45 5.45h.038c-.011.182-.038.363-.038.545a10.365 10.365 0 0 0 .274 2.327 11.452 11.452 0 0 1-14.444-11.048 11.32 11.32 0 0 1 1.33-5.341 6.536 6.536 0 0 0 1.846 1.688 1.09 1.09 0 1 0 1.122-1.869 4.36 4.36 0 0 1 4.387-7.533 1.09 1.09 0 1 0 1.079-1.894 6.507 6.507 0 0 0-3.2-.856 6 6 0 0 1 5.968-5.45 5.912 5.912 0 0 1 1.559.218 11.437 11.437 0 0 0-.643 1.775 1.091 1.091 0 0 0 2.11.552 9.223 9.223 0 0 1 .981-2.365 9.342 9.342 0 0 1 7.983-4.54 9.234 9.234 0 0 1 5.443 1.771 6.481 6.481 0 0 0-.537 2.589 1.09 1.09 0 0 0 2.18 0 4.36 4.36 0 0 1 8.72 0 1.09 1.09 0 0 0 2.18 0 6.525 6.525 0 0 0-.1-1.09h.1a12.065 12.065 0 0 1 11.813 9.946 6.471 6.471 0 0 0-2.657 1.173 1.09 1.09 0 0 0 1.308 1.744 4.36 4.36 0 0 1 6.413 5.633 4.418 4.418 0 0 1-1.962 1.8 1.091 1.091 0 0 0 .924 1.976 6.56 6.56 0 0 0 1.853-1.322 8.132 8.132 0 0 1-1.267 9.035l-.026.026a8.24 8.24 0 0 1-3.622 2.316 1.09 1.09 0 1 0 .654 2.08 10.091 10.091 0 0 0 1.609-.676 11.944 11.944 0 0 1-6.112 5.712z" transform="translate(-220 -1279) translate(147.244 411.504)"/>
            <path fill="#089892" d="M131.04 907.988l-1.28-.593a3.821 3.821 0 0 1-1.57-5.13l.132-.248a3.3 3.3 0 0 0 .594.06 3.336 3.336 0 1 0-2.282-.922l-.118.224a5.674 5.674 0 0 0-.4 4.326l-4.859-2.257c-.008 0-.013-.012-.022-.015l-.063-.024-.473-.221-.012-.009a3.788 3.788 0 0 1-2-2.247 3.732 3.732 0 0 1 .246-2.96l.869-1.643a3.131 3.131 0 0 0 .6.061 3.336 3.336 0 1 0-2.282-.922l-.853 1.616a5.616 5.616 0 0 0-.405 4.319l-5.745-2.665c-.012-.007-.02-.018-.032-.024a3.754 3.754 0 0 1-2.18-3.284c.046 0 .089.012.134.012a3.351 3.351 0 1 0-2-.688 5.61 5.61 0 0 0 .2 2.179l-.9-.419a5.671 5.671 0 0 0-7.011 1.847 3.332 3.332 0 1 0 1.655.929 3.785 3.785 0 0 1 4.548-1.056l4.939 2.291a5.64 5.64 0 0 0-2.783 2.552 3.329 3.329 0 1 0 1.705.839 3.789 3.789 0 0 1 4.825-1.645h.019l2.493 1.156a5.621 5.621 0 0 0-2.778 2.55l-2.98 5.621a3.157 3.157 0 0 0-.513-.048 3.347 3.347 0 1 0 2.223.872l2.946-5.558a3.8 3.8 0 0 1 4.822-1.705l4.65 2.157a5.643 5.643 0 0 0-2.783 2.558l-.415.79a3.311 3.311 0 1 0 1.7.83l.392-.743a3.8 3.8 0 0 1 4.864-1.694l1.4.651a2.841 2.841 0 0 1 1.347 3.848l-.829 1.66a13.07 13.07 0 0 0-1.369 5.808v3.791a.947.947 0 1 0 1.894 0v-3.791a11.162 11.162 0 0 1 1.171-4.961l.829-1.661a4.738 4.738 0 0 0-2.245-6.414zm-10.65-16.336a1.422 1.422 0 1 1-1.422 1.422 1.421 1.421 0 0 1 1.422-1.422zm-21.79 11.37a1.421 1.421 0 1 1 1.421-1.42 1.421 1.421 0 0 1-1.421 1.42zm9-10.895a1.421 1.421 0 1 1 1.421 1.421 1.422 1.422 0 0 1-1.421-1.421zm-.474 15.633a1.422 1.422 0 1 1 1.421-1.421 1.421 1.421 0 0 1-1.422 1.421zm3.316 8.527a1.422 1.422 0 1 1 1.421-1.422 1.422 1.422 0 0 1-1.422 1.422zm12.279-2.07a1.421 1.421 0 1 1-.8-1.592 1.423 1.423 0 0 1 .799 1.592zm6.2-16.879a1.421 1.421 0 1 1-1.42 1.421 1.421 1.421 0 0 1 1.415-1.421z" transform="translate(-220 -1279) translate(147.244 411.504)"/>
        </g>
    </g>
</svg>
