<svg xmlns="http://www.w3.org/2000/svg" width="85" height="85" viewBox="0 0 85 85">
    <defs>
        <style>
            .cls-2{fill:#fff}
        </style>
    </defs>
    <g id="center-icon-08-ffffff" transform="translate(-220 -1279)">
        <path id="area" fill="none" d="M0 0H85V85H0z" transform="translate(220 1279)"/>
        <g id="그룹_324" transform="translate(-644.037 860.986)">
            <path id="패스_56375" d="M887.01 435.352a.971.971 0 0 1-.973-.967v-8.4a.971.971 0 0 1 .973-.968h17.005a5.2 5.2 0 0 1 4.888 3.443l.273.759h6l2.4.009 2.953.022a.97.97 0 0 1-.262 1.9h-11.091l-.273.757a5.2 5.2 0 0 1-4.888 3.444zm.973-1.935h16.032a3.233 3.233 0 1 0 0-6.466h-16.032z" class="cls-2"/>
            <path id="패스_56376" d="M894.644 495.056a.971.971 0 0 1-.973-.967v-10.671l-.442-.484a17.672 17.672 0 0 1-7.192-14.263v-21.133a5.809 5.809 0 0 1 9.849-4.154l.8.769.8-.769a5.815 5.815 0 0 1 8.084 0l.8.765.795-.764a5.819 5.819 0 0 1 6.312-1.175l1.592.671v-11.53H917v21.542h3.177a6.545 6.545 0 0 1 2.9.673l1.65.811v-23.563a3.646 3.646 0 0 0-3.863-3.839 3.586 3.586 0 0 0-3.32 1.969l-.035.081-2.2-.008a6.026 6.026 0 0 1 5.55-3.978 5.8 5.8 0 0 1 5.81 5.775v37.857a17.649 17.649 0 0 1-7.176 14.248l-.335.251-.124 10.918a.971.971 0 0 1-.973.968zm.974-1.936h21.476v-8.594l-1.578.642a17.726 17.726 0 0 1-1.685.591l-.145.043a18.052 18.052 0 0 1-4.937.688h-4.787a17.831 17.831 0 0 1-6.767-1.322l-1.577-.641zm-7.635-24.449a15.949 15.949 0 0 0 15.979 15.884h4.787c.308 0 .613-.01.915-.027l1.975-.105-1.076-1.662a16.416 16.416 0 0 1-2.779-8.741 15.765 15.765 0 0 1 1.545-6.778l.786-1.64h-3.176a11.184 11.184 0 0 1-8.928-4.4l-.853-1.113-.92 1.059a5.813 5.813 0 0 1-6.661 1.548l-1.594-.677zm9.841-12.477a9.28 9.28 0 0 0 9.115 7.473h5.2a.968.968 0 0 1 .752 1.583 13.766 13.766 0 0 0-3.163 8.77 15.051 15.051 0 0 0 3.5 9.112l.527.644.775-.3a16 16 0 0 0 10.193-14.8V458.7a4.577 4.577 0 0 0-4.549-3.874H897.56zm-5.977-12.511a3.864 3.864 0 0 0-3.864 3.855v9.828a3.863 3.863 0 0 0 7.726 0v-9.828a3.863 3.863 0 0 0-3.862-3.855zm19.345 0a3.856 3.856 0 0 0-3.863 3.841v5.369h7.726v-5.369a3.856 3.856 0 0 0-3.863-3.841zm-9.673 0a3.856 3.856 0 0 0-3.863 3.841v5.369h7.727v-5.369a3.857 3.857 0 0 0-3.864-3.841z" class="cls-2"/>
        </g>
    </g>
</svg>
