<svg xmlns="http://www.w3.org/2000/svg" width="85" height="85" viewBox="0 0 85 85">
    <defs>
        <style>
            .cls-3{fill:none}.cls-2,.cls-4{fill:#fff}.cls-3{opacity:.4}.cls-4{stroke:#fff;stroke-width:.2px}
        </style>
    </defs>
    <g id="clinic-icon-03-ffffff" transform="translate(-220 -1279)">
        <path id="area" fill="none" d="M0 0H85V85H0z" transform="translate(220 1279)"/>
        <g id="그룹_142" transform="translate(-79.366 538.161)">
            <g id="그룹_139">
                <path id="패스_56219" d="M366.1 791.669a1.029 1.029 0 0 0-1.406.377l-6.312 10.932a6.552 6.552 0 1 0 1.739 1.106l6.356-11.009a1.029 1.029 0 0 0-.377-1.406zm-10.3 21.778a4.471 4.471 0 1 1 4.471-4.472 4.476 4.476 0 0 1-4.471 4.472z" class="cls-2"/>
                <g id="그룹_138">
                    <path id="패스_56220" d="M345.9 807.946h-12.254a6.53 6.53 0 1 0 0 2.06H345.9a1.03 1.03 0 1 0 0-2.06zm-18.7 5.5a4.471 4.471 0 1 1 4.473-4.472 4.476 4.476 0 0 1-4.473 4.473z" class="cls-2"/>
                    <path id="패스_56221" d="M327.2 804.5a4.471 4.471 0 1 0 4.473 4.471 4.476 4.476 0 0 0-4.473-4.471z" class="cls-3"/>
                </g>
                <path id="패스_56222" d="M321.022 800.871a1.028 1.028 0 0 0 .893.515 1.015 1.015 0 0 0 .513-.139 1.03 1.03 0 0 0 .378-1.405l-6.225-10.783a6.525 6.525 0 1 0-3.681 1.141 6.457 6.457 0 0 0 1.817-.261zm-12.6-17.2a4.471 4.471 0 1 1 4.471 4.472 4.476 4.476 0 0 1-4.468-4.471z" class="cls-2"/>
                <path id="패스_56223" d="M316.9 775.665a1.03 1.03 0 0 0 1.406-.376l6.307-10.923a6.552 6.552 0 1 0-1.739-1.106l-6.35 11a1.029 1.029 0 0 0 .376 1.406zm10.3-21.765a4.471 4.471 0 1 1-4.471 4.471 4.476 4.476 0 0 1 4.471-4.471z" class="cls-2"/>
                <path id="패스_56224" d="M337.1 759.4h12.254a6.53 6.53 0 1 0 0-2.059H337.1a1.03 1.03 0 1 0 0 2.059zm18.7-5.5a4.471 4.471 0 1 1-4.473 4.471 4.476 4.476 0 0 1 4.473-4.471z" class="cls-2"/>
                <path id="패스_56225" d="M370.1 777.141a6.489 6.489 0 0 0-1.817.261L362 766.517a1.03 1.03 0 0 0-1.784 1.029l6.2 10.739a6.525 6.525 0 1 0 3.685-1.144zm0 11a4.471 4.471 0 1 1 4.471-4.472 4.477 4.477 0 0 1-4.471 4.475z" class="cls-2"/>
            </g>
            <g id="그룹_141" transform="translate(-1.283 -1.287)">
                <g id="그룹_140" transform="translate(327.328 768.312)">
                    <path id="패스_56226" d="M331.206 789.5a2.3 2.3 0 1 1 2.3-2.3 2.3 2.3 0 0 1-2.3 2.3zm0-3.061a.765.765 0 1 0 .765.765.766.766 0 0 0-.765-.767z" class="cls-4" transform="translate(-327.188 -766.848)"/>
                    <path id="패스_56227" d="M341.683 772.9a2.3 2.3 0 1 1 2.3-2.3 2.3 2.3 0 0 1-2.3 2.3zm0-3.06a.765.765 0 1 0 .765.765.766.766 0 0 0-.765-.762z" class="cls-4" transform="translate(-326.264 -768.312)"/>
                    <path id="패스_56228" d="M347.448 792.918a3.061 3.061 0 1 1 3.06-3.061 3.065 3.065 0 0 1-3.06 3.061zm0-4.591a1.531 1.531 0 1 0 1.53 1.53 1.532 1.532 0 0 0-1.53-1.53z" class="cls-4" transform="translate(-325.823 -766.681)"/>
                    <path id="패스_56229" d="M339.635 786.528a3.061 3.061 0 1 1 3.061-3.061 3.065 3.065 0 0 1-3.061 3.061zm0-4.591a1.53 1.53 0 1 0 1.53 1.53 1.532 1.532 0 0 0-1.53-1.53z" class="cls-4" transform="translate(-326.512 -767.245)"/>
                    <path id="패스_56230" d="M346.667 781.606a3.061 3.061 0 1 1 3.06-3.061 3.065 3.065 0 0 1-3.06 3.061zm0-4.591a1.53 1.53 0 1 0 1.53 1.53 1.532 1.532 0 0 0-1.53-1.53z" class="cls-4" transform="translate(-325.892 -767.679)"/>
                    <path id="패스_56231" d="M356.86 781.313a2.3 2.3 0 0 0-2.276-2.242 2.268 2.268 0 0 0-1.627.682 2.355 2.355 0 0 0-.654 1.665c.011.885.03 2.411-.787 3.234a2.3 2.3 0 0 0 0 3.235 2.273 2.273 0 0 0 3.229 0 7.932 7.932 0 0 0 2.119-6.572zm-3.2 5.494a.745.745 0 0 1-1.059 0 .767.767 0 0 1 0-1.077c1.27-1.279 1.244-3.281 1.231-4.332a.843.843 0 0 1 .213-.571.751.751 0 0 1 .539-.226.791.791 0 0 1 .749.8 6.468 6.468 0 0 1-1.677 5.4z" class="cls-4" transform="translate(-325.253 -767.363)"/>
                    <path id="패스_56232" d="M336.217 778.443a7.968 7.968 0 0 0-6.632-2.152 2.326 2.326 0 0 0-2.257 2.3 2.3 2.3 0 0 0 .691 1.649 2.369 2.369 0 0 0 1.671.659c.893-.012 2.437-.033 3.269.8a2.3 2.3 0 1 0 3.257-3.259zm-1.081 2.18a.762.762 0 0 1-.544.226.777.777 0 0 1-.551-.229 5.442 5.442 0 0 0-3.935-1.254h-.435a.838.838 0 0 1-.578-.216.787.787 0 0 1-.235-.562.811.811 0 0 1 .818-.775 6.5 6.5 0 0 1 5.458 1.707.777.777 0 0 1 0 1.1z" class="cls-4" transform="translate(-327.328 -767.611)"/>
                    <path id="패스_56233" d="M343.163 794a2.376 2.376 0 0 0-1.673-.658c-.893.012-2.436.033-3.268-.8a2.3 2.3 0 1 0-3.257 3.259 7.5 7.5 0 0 0 5.651 2.185c.333 0 .661-.013.981-.033a2.327 2.327 0 0 0 2.257-2.3 2.3 2.3 0 0 0-.691-1.649zm-1.663 2.43a6.5 6.5 0 0 1-5.456-1.707.778.778 0 0 1 0-1.1.772.772 0 0 1 1.095 0c1.288 1.291 3.31 1.265 4.37 1.249a.85.85 0 0 1 .578.218.782.782 0 0 1 .235.562.81.81 0 0 1-.818.775z" class="cls-4" transform="translate(-326.714 -766.234)"/>
                </g>
            </g>
            <path id="패스_56234" d="M370.1 788.144a4.471 4.471 0 1 1 4.471-4.472 4.477 4.477 0 0 1-4.471 4.472z" class="cls-3"/>
            <path id="패스_56235" d="M327.2 753.9a4.471 4.471 0 1 1-4.471 4.471 4.476 4.476 0 0 1 4.471-4.471z" class="cls-3"/>
        </g>
    </g>
</svg>
