<svg xmlns="http://www.w3.org/2000/svg" width="85" height="85" viewBox="0 0 85 85">
    <g>
        <path fill="none" d="M0 0H85V85H0z" transform="translate(-220 -1279) translate(220 1279)"/>
        <g>
            <path fill="none" d="M130.947 799.257s8.8 4.378 13.658-3.077 7.695-21.641 1.442-31.644-15.1-5.674-17.024-3.078-2.789 8.849-1.442 11.927-.192 5.772.1 6.637 1.581 3.118.577 3.751-4.717 11.155 2.689 15.484z" opacity="0.4" transform="translate(-220 -1279) translate(145.477 537.063) translate(1.531 0.041)"/>
            <path d="M108.675 779.1a7.081 7.081 0 0 0 4.483-6.855v-1.365a1.048 1.048 0 0 0-2.1 0v1.365c0 2.8-1.838 5.071-4.1 5.071h-1.455a5.479 5.479 0 0 0-.325-.744 2 2 0 0 1-.025-2.142A11.012 11.012 0 0 0 91.3 758.205a1.048 1.048 0 0 0 .925 1.881A8.915 8.915 0 0 1 103.4 773.3a4.076 4.076 0 0 0 0 4.379 3.577 3.577 0 0 1 0 3.68 4.1 4.1 0 0 0 .1 4.54 9.268 9.268 0 0 1 1.313 6.933 8.867 8.867 0 0 1-16.059 3.07c-6.98-10.47-7.174-21.989 0-32.759A1.048 1.048 0 1 0 87 761.976c-7.422 11.147-7.666 23.583 0 35.084a10.967 10.967 0 0 0 19.856-3.8 11.386 11.386 0 0 0-1.7-8.639 2.009 2.009 0 0 1 .013-2.162 5.471 5.471 0 0 0 .615-1.418h1.3a6.479 6.479 0 0 1 6.471 6.473V810.6a1.048 1.048 0 0 0 2.1 0v-23.09a8.569 8.569 0 0 0-6.98-8.41z" transform="translate(-220 -1279) translate(145.477 537.063) translate(0 0)"/>
            <path fill="#089892" d="M146.036 761.976a1.048 1.048 0 1 0-1.745 1.162c6.988 10.495 7.16 22.015 0 32.759a8.9 8.9 0 0 1-7.421 3.968c-6.955 0-11.374-7.7-7.234-14.112a4.089 4.089 0 0 0 .009-4.4 3.575 3.575 0 0 1 0-3.68 4.076 4.076 0 0 0 0-4.379 8.916 8.916 0 0 1 11.17-13.21 1.048 1.048 0 0 0 .925-1.881 11.012 11.012 0 0 0-13.858 16.225 1.993 1.993 0 0 1-.025 2.143 5.475 5.475 0 0 0-.324.744h-1.456c-2.26 0-4.1-2.275-4.1-5.071v-1.365a1.048 1.048 0 0 0-2.1 0v1.365a7.083 7.083 0 0 0 4.483 6.855 8.57 8.57 0 0 0-6.985 8.407V810.6a1.049 1.049 0 0 0 2.1 0v-23.09a6.479 6.479 0 0 1 6.471-6.473h1.3a5.488 5.488 0 0 0 .614 1.418 2.018 2.018 0 0 1-.068 2.289c-4.769 7.253.129 17.218 9.077 17.218a10.991 10.991 0 0 0 9.165-4.9c7.428-11.145 7.666-23.579.002-35.086z" transform="translate(-220 -1279) translate(145.477 537.063) translate(1.224 0)"/>
        </g>
    </g>
</svg>
