<?xml version="1.0" encoding="utf-8"?>
<!-- Generator: Adobe Illustrator 19.0.0, SVG Export Plug-In . SVG Version: 6.00 Build 0)  -->
<svg version="1.1" id="Layer_1" xmlns="http://www.w3.org/2000/svg" xmlns:xlink="http://www.w3.org/1999/xlink" x="0px" y="0px"
	 viewBox="-255 378.9 85 85" style="enable-background:new -255 378.9 85 85;" xml:space="preserve">
<style type="text/css">
	.st0{fill:none;}
	.st1{fill:#FFFFFF;}
</style>
<g id="center-icon-10" transform="translate(-220 -1279)">
	<rect id="area" x="-35" y="1657.9" class="st0" width="85" height="85"/>
	<g id="그룹_328" transform="translate(149.74 739.109)">
		<path id="패스_56377" class="st1" d="M-152.3,961.8l13.2-2.3l-0.6-0.6c-1.5-1.3-2.7-3-3.4-4.9l-0.1-0.2l-0.1-0.1
			c-2.3-0.1-4.2-2-4.2-4.3V946c0-8.9,7.2-16.2,16.2-16.2c8.9,0,16.2,7.2,16.2,16.2v3.6c0,2.3-1.8,4.2-4.1,4.3l-0.2,0l-0.1,0.1
			c-0.8,1.9-2,3.7-3.5,5l-0.6,0.6l3,0.6c1.8,0.4,3.4,1.1,4.8,2.2c2.7,2.1,4.2,5.4,4.2,8.8v13.6c0,2-1.6,3.7-3.7,3.7
			c-0.6,0-1.1-0.1-1.7-0.4l-0.6-0.3v5.2h-27.6v-19h-7.1L-152.3,961.8z M-117.6,984.7c0,1.2,1,2.2,2.2,2.2c1.2,0,2.2-1,2.2-2.2v-9.6
			h-4.4V984.7z M-119.1,973.6h5.9v-2.5c0-3-1.3-5.7-3.6-7.6l-0.7-0.5l-1.6-0.9l-0.1,0c-0.6-0.2-1.2-0.4-1.8-0.6l-2.5-0.5v5.3h-15.8
			v-5.3l-4.4,0.8l-1.5,0.3l-5.6,1v9.3h7.1v19h24.5V973.6z M-137.7,964.9h12.7v-4.5l-0.6,0.3c-3.6,1.9-7.9,1.9-11.5,0l-0.6-0.3V964.9
			z M-142.5,949.5L-142.5,949.5c0,6.2,5,11.1,11.1,11.1s11.1-5,11.1-11.1v-4h-2.5c-3,0-6-1.1-8.3-3l-0.2-0.1l-0.2,0
			c-2.4,2-5.4,3.1-8.5,3.1h-2.5L-142.5,949.5z M-118.8,949.5c0,0.7-0.1,1.4-0.2,2.1l-0.1,0.8l0.7-0.3c1-0.5,1.6-1.4,1.6-2.5
			c0-1-0.5-1.9-1.4-2.4l-0.6-0.4L-118.8,949.5z M-144.7,947.1c-0.9,0.5-1.4,1.4-1.4,2.4c0,1.1,0.6,2.1,1.6,2.5l0.7,0.3l-0.1-0.8
			c-0.1-0.7-0.2-1.4-0.2-2.1v-2.8L-144.7,947.1z M-116.8,946.1l0-0.8c-0.3-8.1-7.1-14.4-15.2-14.1c-7.6,0.3-13.8,6.4-14.1,14.1
			l0,0.8l3.6-2.2h2.5c3,0,5.9-1.2,8-3.3l0.5-0.5l0.5,0.5c2.1,2.1,5,3.3,8,3.3h2.5L-116.8,946.1z"/>
		<path id="패스_56378" class="st1" d="M-131.6,956.9c-2.1,0-3.9-1.6-4.1-3.8h1.2c0.2,1.6,1.8,2.8,3.4,2.5
			c1.3-0.2,2.3-1.2,2.5-2.5h1.2C-127.7,955.2-129.4,956.8-131.6,956.9z"/>
		<path id="패스_56379" class="st1" d="M-139.1,987.4v-8l3.8-3.7l8.3,0l3.7,3.7l0,8L-139.1,987.4z M-137.7,980l0,6.1h13v-6
			l-2.9-2.9l-7.2,0L-137.7,980z"/>
		<g id="그룹_325">
			<path id="패스_56380" class="st1" d="M-136,950.1c0.7,0,1.4-0.6,1.4-1.3c0-0.7-0.6-1.4-1.3-1.4c-0.7,0-1.4,0.6-1.4,1.3
				c0,0.4,0.1,0.7,0.4,1C-136.7,950-136.3,950.1-136,950.1z"/>
			<path id="패스_56381" class="st1" d="M-127.2,950.1c0.7,0,1.3-0.6,1.4-1.3c0-0.7-0.6-1.3-1.3-1.4s-1.3,0.6-1.4,1.3
				c0,0.4,0.1,0.7,0.4,1C-127.9,950-127.5,950.1-127.2,950.1z"/>
		</g>
		<rect id="사각형_160" x="-162.9" y="955" class="st1" width="1.4" height="20.7"/>
		<g id="그룹_326">
			<path id="패스_56382" class="st1" d="M-151.3,971.8h-9.7c-2.5,0-4.6-2-4.6-4.6c0-2.5,2-4.6,4.6-4.6c0,0,0,0,0,0h9.7v1.5h-9.7
				c-1.7,0-3.1,1.4-3.1,3.1c0,1.7,1.4,3.1,3.1,3.1c0,0,0,0,0,0h9.7L-151.3,971.8z"/>
		</g>
		<g id="그룹_327">
			<path id="패스_56383" class="st1" d="M-153.1,945.6l0.1-0.1c1.3-1,2.1-2.6,2.1-4.3c-0.1-2.7-2-5-4.7-5.5l-0.1-0.1l-0.1-0.2
				c-0.5-3.3-3.3-5.7-6.6-5.7c-3.4,0.1-6.2,2.5-6.7,5.9l-0.1,0.1l-0.2,0.1c-2.6,0.5-4.5,2.8-4.5,5.4c0,1.7,0.8,3.4,2.2,4.5l0,0.2
				l-0.1,0.2c-0.6,1-1,2.2-1,3.5c0,3.7,3,6.7,6.7,6.7c1.3-0.1,2.5-0.4,3.6-1c1.1,0.5,2.3,0.9,3.5,1c3.7,0,6.7-3,6.7-6.7
				c0-1.3-0.4-2.6-1.1-3.7L-153.1,945.6z M-158.8,954.7c-0.3,0-0.5,0-0.8-0.1c-0.2,0-0.5-0.1-0.7-0.2l-0.4-0.1
				c-1.8-0.7-3-2.4-3.2-4.4h-1.5c0.1,1.4,0.6,2.7,1.5,3.8l0.4,0.5l-0.7,0.2c-0.5,0.2-1,0.3-1.5,0.3c-2.8,0-5.1-2.3-5.1-5.2
				c0-2.7,2.1-4.9,4.7-5.1v-1.5c-1.5,0.1-2.9,0.7-4,1.6l-0.2,0l-0.2-0.1c-1.7-1.3-2.1-3.8-0.8-5.5c0.8-1,1.9-1.6,3.2-1.6h0.8v-0.8
				c0-2.8,2.3-5.2,5.2-5.2c2.5,0,4.7,1.9,5.1,4.3l0,0.1l-0.4,0.1c-2.3,0.6-4.1,2.5-4.3,4.9h1.5c0.2-2,1.9-3.5,4-3.6c2.2,0,4,1.8,4,4
				c0,1.6-0.9,3-2.3,3.6l-1,0.4l0.7,0.8c1.9,2.1,1.8,5.3-0.3,7.3C-156.2,954.2-157.4,954.7-158.8,954.7L-158.8,954.7z"/>
		</g>
	</g>
</g>
</svg>
