<svg xmlns="http://www.w3.org/2000/svg" width="85" height="85" viewBox="0 0 85 85">
    <g>
        <path fill="none" d="M0 0H85V85H0z" transform="translate(-220 -1279) translate(220 1279)"/>
        <g>
            <path d="M777.037 493.207a1.976 1.976 0 0 1-1.973-1.975v-2.31h-2.31a1.974 1.974 0 0 1-1.973-1.971V431.27a1.975 1.975 0 0 1 1.973-1.972h4.452v-1.239a3.043 3.043 0 1 1 6.086 0v1.241h34.434a1.975 1.975 0 0 1 1.972 1.972v2.311h2.311a1.974 1.974 0 0 1 1.972 1.973v55.678a1.975 1.975 0 0 1-1.972 1.975zm-.169-1.874l.169.07h45.072l.069-.171v-55.778l-.169-.07H819.7v1.241a.9.9 0 0 1-1.8 0v-5.456l-.169-.067h-38.722v3.38a1.24 1.24 0 0 0 2.48 0 .9.9 0 0 1 1.8 0 3.043 3.043 0 1 1-6.086 0V431.1h-4.552l-.069.168v55.781l.169.068h45.072l.068-.168v-46.042a.9.9 0 1 1 1.8 0v46.044a1.974 1.974 0 0 1-1.972 1.971h-40.851zm3.381-64.515a1.241 1.241 0 0 0-1.24 1.241v1.241h2.48v-1.239a1.241 1.241 0 0 0-1.24-1.243z" transform="translate(-220 -1279) translate(-534.781 861.986)"/>
            <path fill="#089892" d="M794.169 456.8a1.973 1.973 0 0 1-1.972-1.972v-4.451h-4.452a1.976 1.976 0 0 1-1.973-1.974v-2.14a1.975 1.975 0 0 1 1.973-1.973h4.455v-4.452a1.974 1.974 0 0 1 1.972-1.973h2.141a1.975 1.975 0 0 1 1.973 1.973v4.452h4.452a1.974 1.974 0 0 1 1.972 1.973v2.14a1.975 1.975 0 0 1-1.972 1.974h-4.452v4.451a1.974 1.974 0 0 1-1.973 1.972zm-6.594-10.537v2.24l.17.07h5.355a.9.9 0 0 1 .9.9v5.453l.169.07h2.242l.069-.17v-5.353a.9.9 0 0 1 .9-.9h5.454l.069-.17v-2.24l-.169-.071h-5.354a.9.9 0 0 1-.9-.9v-5.454l-.17-.069h-2.241l-.069.169v5.354a.9.9 0 0 1-.9.9h-5.454z" transform="translate(-220 -1279) translate(-534.781 861.986)"/>
            <path d="M784.815 469.366a.9.9 0 0 1 0-1.8h21.415a.9.9 0 1 1 0 1.8z" transform="translate(-220 -1279) translate(-534.781 861.986)"/>
            <path d="M784.815 477.791a.9.9 0 0 1 0-1.8h21.415a.9.9 0 1 1 0 1.8z" transform="translate(-220 -1279) translate(-534.781 861.986)"/>
        </g>
    </g>
</svg>
