<svg xmlns="http://www.w3.org/2000/svg" width="85" height="85" viewBox="0 0 85 85">
    <defs>
        <style>
            .cls-2{fill:#fff}
        </style>
    </defs>
    <g id="clinic-icon-11-ffffff" transform="translate(-220 -1279)">
        <path id="area" fill="none" d="M0 0H85V85H0z" transform="translate(220 1279)"/>
        <g id="그룹_210" transform="translate(-78.573 415.382)">
            <path id="패스_56279" d="M310.453 936.059a3.885 3.885 0 0 1-3.88-3.881V888.3a3.884 3.884 0 0 1 3.88-3.881h19.408v-3.438a4.364 4.364 0 0 1 4.36-4.36h14.557a4.365 4.365 0 0 1 4.36 4.36v3.438h19.408a3.884 3.884 0 0 1 3.88 3.881v43.881a3.885 3.885 0 0 1-3.88 3.881zm0-49.543a1.783 1.783 0 0 0-1.782 1.781v43.881a1.783 1.783 0 0 0 1.782 1.781h62.093a1.783 1.783 0 0 0 1.782-1.781V888.3a1.783 1.783 0 0 0-1.782-1.781zm23.768-7.8a2.263 2.263 0 0 0-2.262 2.26v3.438h19.081v-3.438a2.263 2.263 0 0 0-2.262-2.26z" class="cls-2"/>
            <path id="패스_56280" d="M341.5 927.306a17.069 17.069 0 1 1 17.068-17.069 17.088 17.088 0 0 1-17.068 17.069zm0-32.037a14.969 14.969 0 1 0 14.969 14.968 14.985 14.985 0 0 0-14.969-14.968z" class="cls-2"/>
            <path id="패스_56281" d="M338.616 918.46a1.051 1.051 0 0 1-1.049-1.05v-3.24h-3.24a1.051 1.051 0 0 1-1.05-1.05v-5.766a1.051 1.051 0 0 1 1.05-1.05h3.24v-3.239a1.05 1.05 0 0 1 1.049-1.049h5.767a1.05 1.05 0 0 1 1.049 1.049v3.235h3.24a1.05 1.05 0 0 1 1.049 1.05v5.766a1.05 1.05 0 0 1-1.049 1.05h-3.24v3.24a1.051 1.051 0 0 1-1.049 1.05zm-3.24-6.389h3.24a1.05 1.05 0 0 1 1.049 1.049v3.24h3.668v-3.24a1.051 1.051 0 0 1 1.05-1.049h3.24V908.4h-3.24a1.05 1.05 0 0 1-1.05-1.05v-3.24h-3.668v3.24a1.05 1.05 0 0 1-1.049 1.05h-3.24z" class="cls-2"/>
            <path id="패스_56282" d="M365.429 925a1.051 1.051 0 0 1-1.05-1.05v-27.426a1.049 1.049 0 0 1 2.1 0v27.426a1.051 1.051 0 0 1-1.05 1.05z" class="cls-2"/>
            <path id="패스_56283" d="M317.57 925a1.051 1.051 0 0 1-1.05-1.05v-27.426a1.05 1.05 0 0 1 2.1 0v27.426a1.051 1.051 0 0 1-1.05 1.05z" class="cls-2"/>
        </g>
    </g>
</svg>
