<svg xmlns="http://www.w3.org/2000/svg" width="85" height="85" viewBox="0 0 85 85">
    <defs>
        <style>
            .cls-1{fill:none}
        </style>
    </defs>
    <g id="center-icon-05" transform="translate(-220 -1279)">
        <path id="area" d="M0 0H85V85H0z" class="cls-1" transform="translate(220 1279)"/>
        <g id="그룹_221" transform="translate(235.345 1289.754)">
            <path id="패스_56322" d="M431.865 555.547h41.029v1.807h-41.029z" transform="translate(-425.451 -555.547)"/>
            <path id="패스_56323" d="M440.648 566.981h24.865v1.808h-24.865z" transform="translate(-426.155 -556.463)"/>
            <path id="패스_56324" d="M465.664 621.969a.9.9 0 0 1-.723-.357l-11.565-15.179a.9.9 0 1 1 1.439-1.095l10 13.127.158-6.986a.9.9 0 0 1 .923-.883.811.811 0 0 1 .193.026l6.807 1.649-12.029-15.654a.9.9 0 1 1 1.408-1.131l.023.029L475.9 613.2a.9.9 0 0 1-.928 1.43l-8.21-1.987-.192 8.444a.885.885 0 0 1-.9.878z" transform="translate(-427.16 -558.719)"/>
            <path id="패스_56325" d="M444.325 593.786a.9.9 0 0 1-.723-.356l-18.524-24.311a.906.906 0 0 1-.1-.923l5.506-12.119a.9.9 0 0 1 1.536-.18l20.521 26.688a.9.9 0 0 1-1.435 1.1L431.5 558.2l-4.659 10.257 18.2 23.883a.9.9 0 0 1-.723 1.451z" transform="translate(-424.893 -555.547)"/>
            <path id="패스_56326" fill="#089892" d="M440.676 618.8a.9.9 0 0 1-.9-.882l-.193-8.442-8.209 1.987a.9.9 0 0 1-.929-1.429l41.607-54.124a.9.9 0 0 1 1.536.176l5.512 12.125a.9.9 0 0 1-.1.921l-37.6 49.313a.9.9 0 0 1-.72.356zm-.219-11.369a.9.9 0 0 1 .9.882l.162 6.986 35.712-46.838-4.669-10.264L433.44 609.1l6.808-1.645a.836.836 0 0 1 .209-.025z" transform="translate(-425.322 -555.548)"/>
            <path id="패스_56327" d="M440.735 607.658a.9.9 0 0 1 .9.882l.162 6.986 35.712-46.838-4.669-10.264-39.125 50.9 6.808-1.645a.838.838 0 0 1 .209-.025z" class="cls-1" transform="translate(-425.6 -555.778)"/>
        </g>
    </g>
</svg>
